<mxfile host="app.diagrams.net" modified="2022-10-07T09:05:44.958Z" agent="5.0 (Macintosh; Intel Mac OS X 10_15_7) AppleWebKit/537.36 (KHTML, like Gecko) Chrome/105.0.0.0 Safari/537.36" etag="t_mPDkNiTs8Gu8OjoinN" version="20.4.0" type="github">
  <diagram id="rNxQQd6KuYC7TdcuVkW6" name="第 1 页">
    <mxGraphModel dx="2172" dy="-426" grid="1" gridSize="10" guides="1" tooltips="1" connect="1" arrows="1" fold="1" page="1" pageScale="1" pageWidth="827" pageHeight="1169" math="0" shadow="0">
      <root>
        <mxCell id="0" />
        <mxCell id="1" parent="0" />
        <mxCell id="X0FTAVsm6D2ivHKO1e4E-286" value="" style="html=1;verticalLabelPosition=bottom;align=center;labelBackgroundColor=#ffffff;verticalAlign=top;strokeWidth=1;strokeColor=#000000;shadow=0;dashed=0;shape=mxgraph.ios7.icons.document;labelBorderColor=none;fontFamily=Times New Roman;fontSize=12;fontColor=#000000;fillColor=none;opacity=80;" parent="1" vertex="1">
          <mxGeometry x="-638" y="1267" width="77" height="110" as="geometry" />
        </mxCell>
        <mxCell id="X0FTAVsm6D2ivHKO1e4E-35" value="&lt;font style=&quot;font-size: 11px;&quot;&gt;Match?&lt;br&gt;&amp;nbsp;&lt;/font&gt;" style="rounded=0;whiteSpace=wrap;html=1;align=center;verticalAlign=middle;fontSize=1;" parent="1" vertex="1">
          <mxGeometry x="-371.62" y="1298" width="51" height="30" as="geometry" />
        </mxCell>
        <mxCell id="X0FTAVsm6D2ivHKO1e4E-36" value="" style="endArrow=classic;html=1;rounded=0;fontFamily=Times New Roman;fontSize=2;exitX=1;exitY=0.5;exitDx=0;exitDy=0;entryX=0.003;entryY=0.638;entryDx=0;entryDy=0;entryPerimeter=0;" parent="1" edge="1">
          <mxGeometry width="50" height="50" relative="1" as="geometry">
            <mxPoint x="-391.86" y="1312.82" as="sourcePoint" />
            <mxPoint x="-371.62" y="1313.18" as="targetPoint" />
            <Array as="points">
              <mxPoint x="-391.86" y="1313" />
            </Array>
          </mxGeometry>
        </mxCell>
        <mxCell id="X0FTAVsm6D2ivHKO1e4E-51" value="hunam typed characters:&lt;br style=&quot;font-size: 12px;&quot;&gt;&lt;div style=&quot;text-align: left; font-size: 12px;&quot;&gt;&lt;span style=&quot;background-color: initial; font-size: 12px;&quot;&gt;“po”&lt;/span&gt;&lt;/div&gt;" style="text;html=1;align=center;verticalAlign=middle;resizable=0;points=[];autosize=1;strokeColor=none;fillColor=none;fontSize=12;fontFamily=Times New Roman;" parent="1" vertex="1">
          <mxGeometry x="-692" y="1242" width="140" height="40" as="geometry" />
        </mxCell>
        <mxCell id="X0FTAVsm6D2ivHKO1e4E-173" value="" style="group" parent="1" vertex="1" connectable="0">
          <mxGeometry x="-757" y="1169" width="75" height="220" as="geometry" />
        </mxCell>
        <mxCell id="X0FTAVsm6D2ivHKO1e4E-169" value="" style="group" parent="X0FTAVsm6D2ivHKO1e4E-173" vertex="1" connectable="0">
          <mxGeometry x="5" y="55.5" width="70" height="164.5" as="geometry" />
        </mxCell>
        <mxCell id="X0FTAVsm6D2ivHKO1e4E-172" value="" style="group" parent="X0FTAVsm6D2ivHKO1e4E-169" vertex="1" connectable="0">
          <mxGeometry width="65" height="164.5" as="geometry" />
        </mxCell>
        <mxCell id="X0FTAVsm6D2ivHKO1e4E-148" value="" style="rounded=0;whiteSpace=wrap;html=1;fontFamily=Times New Roman;fontSize=2;strokeColor=#808080;" parent="X0FTAVsm6D2ivHKO1e4E-172" vertex="1">
          <mxGeometry width="20" height="20.5" as="geometry" />
        </mxCell>
        <mxCell id="X0FTAVsm6D2ivHKO1e4E-151" style="edgeStyle=none;rounded=0;orthogonalLoop=1;jettySize=auto;html=1;exitX=1;exitY=0.5;exitDx=0;exitDy=0;fontFamily=Times New Roman;fontSize=2;endArrow=none;endFill=0;strokeColor=#808080;" parent="X0FTAVsm6D2ivHKO1e4E-172" source="X0FTAVsm6D2ivHKO1e4E-153" edge="1">
          <mxGeometry relative="1" as="geometry">
            <mxPoint x="40" y="70.5" as="targetPoint" />
          </mxGeometry>
        </mxCell>
        <mxCell id="X0FTAVsm6D2ivHKO1e4E-153" value="" style="rounded=0;whiteSpace=wrap;html=1;fontFamily=Times New Roman;fontSize=2;strokeColor=#808080;" parent="X0FTAVsm6D2ivHKO1e4E-172" vertex="1">
          <mxGeometry y="30.5" width="20" height="20" as="geometry" />
        </mxCell>
        <mxCell id="X0FTAVsm6D2ivHKO1e4E-158" value="" style="rounded=0;whiteSpace=wrap;html=1;fontFamily=Times New Roman;fontSize=2;strokeColor=#808080;" parent="X0FTAVsm6D2ivHKO1e4E-172" vertex="1">
          <mxGeometry y="60.5" width="20" height="20" as="geometry" />
        </mxCell>
        <mxCell id="X0FTAVsm6D2ivHKO1e4E-163" value="" style="rounded=0;whiteSpace=wrap;html=1;fontFamily=Times New Roman;fontSize=2;strokeColor=#808080;" parent="X0FTAVsm6D2ivHKO1e4E-172" vertex="1">
          <mxGeometry y="90.5" width="20" height="20" as="geometry" />
        </mxCell>
        <mxCell id="X0FTAVsm6D2ivHKO1e4E-164" value="" style="rounded=0;whiteSpace=wrap;html=1;fontFamily=Times New Roman;fontSize=2;strokeColor=#808080;" parent="X0FTAVsm6D2ivHKO1e4E-172" vertex="1">
          <mxGeometry x="40" width="20" height="20" as="geometry" />
        </mxCell>
        <mxCell id="X0FTAVsm6D2ivHKO1e4E-144" style="edgeStyle=orthogonalEdgeStyle;rounded=0;orthogonalLoop=1;jettySize=auto;html=1;entryX=0;entryY=0.5;entryDx=0;entryDy=0;fontFamily=Times New Roman;fontSize=2;endArrow=none;endFill=0;strokeColor=#808080;" parent="X0FTAVsm6D2ivHKO1e4E-172" source="X0FTAVsm6D2ivHKO1e4E-148" target="X0FTAVsm6D2ivHKO1e4E-164" edge="1">
          <mxGeometry relative="1" as="geometry" />
        </mxCell>
        <mxCell id="X0FTAVsm6D2ivHKO1e4E-149" style="edgeStyle=none;rounded=0;orthogonalLoop=1;jettySize=auto;html=1;exitX=1;exitY=0.5;exitDx=0;exitDy=0;entryX=0;entryY=0.5;entryDx=0;entryDy=0;fontFamily=Times New Roman;fontSize=2;endArrow=none;endFill=0;strokeColor=#808080;" parent="X0FTAVsm6D2ivHKO1e4E-172" source="X0FTAVsm6D2ivHKO1e4E-153" target="X0FTAVsm6D2ivHKO1e4E-164" edge="1">
          <mxGeometry relative="1" as="geometry" />
        </mxCell>
        <mxCell id="X0FTAVsm6D2ivHKO1e4E-154" style="edgeStyle=none;rounded=0;orthogonalLoop=1;jettySize=auto;html=1;exitX=1;exitY=0.5;exitDx=0;exitDy=0;entryX=0;entryY=0.5;entryDx=0;entryDy=0;fontFamily=Times New Roman;fontSize=2;endArrow=none;endFill=0;strokeColor=#808080;" parent="X0FTAVsm6D2ivHKO1e4E-172" source="X0FTAVsm6D2ivHKO1e4E-158" target="X0FTAVsm6D2ivHKO1e4E-164" edge="1">
          <mxGeometry relative="1" as="geometry" />
        </mxCell>
        <mxCell id="X0FTAVsm6D2ivHKO1e4E-159" style="edgeStyle=none;rounded=0;orthogonalLoop=1;jettySize=auto;html=1;exitX=1;exitY=0.5;exitDx=0;exitDy=0;entryX=0;entryY=0.5;entryDx=0;entryDy=0;fontFamily=Times New Roman;fontSize=2;endArrow=none;endFill=0;strokeColor=#808080;" parent="X0FTAVsm6D2ivHKO1e4E-172" source="X0FTAVsm6D2ivHKO1e4E-163" target="X0FTAVsm6D2ivHKO1e4E-164" edge="1">
          <mxGeometry relative="1" as="geometry" />
        </mxCell>
        <mxCell id="X0FTAVsm6D2ivHKO1e4E-165" value="" style="rounded=0;whiteSpace=wrap;html=1;fontFamily=Times New Roman;fontSize=2;strokeColor=#808080;" parent="X0FTAVsm6D2ivHKO1e4E-172" vertex="1">
          <mxGeometry x="40" y="30.5" width="20" height="20" as="geometry" />
        </mxCell>
        <mxCell id="X0FTAVsm6D2ivHKO1e4E-145" style="edgeStyle=none;rounded=0;orthogonalLoop=1;jettySize=auto;html=1;entryX=0;entryY=0.5;entryDx=0;entryDy=0;fontFamily=Times New Roman;fontSize=2;endArrow=none;endFill=0;exitX=1;exitY=0.5;exitDx=0;exitDy=0;strokeColor=#808080;" parent="X0FTAVsm6D2ivHKO1e4E-172" source="X0FTAVsm6D2ivHKO1e4E-148" target="X0FTAVsm6D2ivHKO1e4E-165" edge="1">
          <mxGeometry relative="1" as="geometry" />
        </mxCell>
        <mxCell id="X0FTAVsm6D2ivHKO1e4E-150" style="edgeStyle=none;rounded=0;orthogonalLoop=1;jettySize=auto;html=1;exitX=1;exitY=0.5;exitDx=0;exitDy=0;entryX=0;entryY=0.5;entryDx=0;entryDy=0;fontFamily=Times New Roman;fontSize=2;endArrow=none;endFill=0;strokeColor=#808080;" parent="X0FTAVsm6D2ivHKO1e4E-172" source="X0FTAVsm6D2ivHKO1e4E-153" target="X0FTAVsm6D2ivHKO1e4E-165" edge="1">
          <mxGeometry relative="1" as="geometry" />
        </mxCell>
        <mxCell id="X0FTAVsm6D2ivHKO1e4E-155" style="edgeStyle=none;rounded=0;orthogonalLoop=1;jettySize=auto;html=1;exitX=1;exitY=0.5;exitDx=0;exitDy=0;entryX=0;entryY=0.5;entryDx=0;entryDy=0;fontFamily=Times New Roman;fontSize=2;endArrow=none;endFill=0;strokeColor=#808080;" parent="X0FTAVsm6D2ivHKO1e4E-172" source="X0FTAVsm6D2ivHKO1e4E-158" target="X0FTAVsm6D2ivHKO1e4E-165" edge="1">
          <mxGeometry relative="1" as="geometry" />
        </mxCell>
        <mxCell id="X0FTAVsm6D2ivHKO1e4E-160" style="edgeStyle=none;rounded=0;orthogonalLoop=1;jettySize=auto;html=1;exitX=1;exitY=0.5;exitDx=0;exitDy=0;entryX=0;entryY=0.5;entryDx=0;entryDy=0;fontFamily=Times New Roman;fontSize=2;endArrow=none;endFill=0;strokeColor=#808080;" parent="X0FTAVsm6D2ivHKO1e4E-172" source="X0FTAVsm6D2ivHKO1e4E-163" target="X0FTAVsm6D2ivHKO1e4E-165" edge="1">
          <mxGeometry relative="1" as="geometry" />
        </mxCell>
        <mxCell id="X0FTAVsm6D2ivHKO1e4E-166" value="" style="rounded=0;whiteSpace=wrap;html=1;fontFamily=Times New Roman;fontSize=2;strokeColor=#808080;" parent="X0FTAVsm6D2ivHKO1e4E-172" vertex="1">
          <mxGeometry x="40" y="60.5" width="20" height="20" as="geometry" />
        </mxCell>
        <mxCell id="X0FTAVsm6D2ivHKO1e4E-146" style="edgeStyle=none;rounded=0;orthogonalLoop=1;jettySize=auto;html=1;entryX=0;entryY=0.5;entryDx=0;entryDy=0;fontFamily=Times New Roman;fontSize=2;endArrow=none;endFill=0;exitX=1;exitY=0.5;exitDx=0;exitDy=0;strokeColor=#808080;" parent="X0FTAVsm6D2ivHKO1e4E-172" source="X0FTAVsm6D2ivHKO1e4E-148" target="X0FTAVsm6D2ivHKO1e4E-166" edge="1">
          <mxGeometry relative="1" as="geometry" />
        </mxCell>
        <mxCell id="X0FTAVsm6D2ivHKO1e4E-156" style="edgeStyle=none;rounded=0;orthogonalLoop=1;jettySize=auto;html=1;exitX=1;exitY=0.5;exitDx=0;exitDy=0;entryX=0;entryY=0.5;entryDx=0;entryDy=0;fontFamily=Times New Roman;fontSize=2;endArrow=none;endFill=0;strokeColor=#808080;" parent="X0FTAVsm6D2ivHKO1e4E-172" source="X0FTAVsm6D2ivHKO1e4E-158" target="X0FTAVsm6D2ivHKO1e4E-166" edge="1">
          <mxGeometry relative="1" as="geometry" />
        </mxCell>
        <mxCell id="X0FTAVsm6D2ivHKO1e4E-161" style="edgeStyle=none;rounded=0;orthogonalLoop=1;jettySize=auto;html=1;exitX=1;exitY=0.5;exitDx=0;exitDy=0;entryX=0;entryY=0.5;entryDx=0;entryDy=0;fontFamily=Times New Roman;fontSize=2;endArrow=none;endFill=0;strokeColor=#808080;" parent="X0FTAVsm6D2ivHKO1e4E-172" source="X0FTAVsm6D2ivHKO1e4E-163" target="X0FTAVsm6D2ivHKO1e4E-166" edge="1">
          <mxGeometry relative="1" as="geometry" />
        </mxCell>
        <mxCell id="X0FTAVsm6D2ivHKO1e4E-167" value="" style="rounded=0;whiteSpace=wrap;html=1;fontFamily=Times New Roman;fontSize=2;strokeColor=#808080;" parent="X0FTAVsm6D2ivHKO1e4E-172" vertex="1">
          <mxGeometry x="40" y="90.5" width="20" height="20" as="geometry" />
        </mxCell>
        <mxCell id="X0FTAVsm6D2ivHKO1e4E-147" style="edgeStyle=none;rounded=0;orthogonalLoop=1;jettySize=auto;html=1;entryX=0;entryY=0.5;entryDx=0;entryDy=0;fontFamily=Times New Roman;fontSize=2;endArrow=none;endFill=0;exitX=1;exitY=0.5;exitDx=0;exitDy=0;strokeColor=#808080;" parent="X0FTAVsm6D2ivHKO1e4E-172" source="X0FTAVsm6D2ivHKO1e4E-148" target="X0FTAVsm6D2ivHKO1e4E-167" edge="1">
          <mxGeometry relative="1" as="geometry" />
        </mxCell>
        <mxCell id="X0FTAVsm6D2ivHKO1e4E-152" style="edgeStyle=none;rounded=0;orthogonalLoop=1;jettySize=auto;html=1;exitX=1;exitY=0.5;exitDx=0;exitDy=0;entryX=0;entryY=0.5;entryDx=0;entryDy=0;fontFamily=Times New Roman;fontSize=2;endArrow=none;endFill=0;strokeColor=#808080;" parent="X0FTAVsm6D2ivHKO1e4E-172" source="X0FTAVsm6D2ivHKO1e4E-153" target="X0FTAVsm6D2ivHKO1e4E-167" edge="1">
          <mxGeometry relative="1" as="geometry" />
        </mxCell>
        <mxCell id="X0FTAVsm6D2ivHKO1e4E-157" style="edgeStyle=none;rounded=0;orthogonalLoop=1;jettySize=auto;html=1;exitX=1;exitY=0.5;exitDx=0;exitDy=0;entryX=0;entryY=0.5;entryDx=0;entryDy=0;fontFamily=Times New Roman;fontSize=2;endArrow=none;endFill=0;strokeColor=#808080;" parent="X0FTAVsm6D2ivHKO1e4E-172" source="X0FTAVsm6D2ivHKO1e4E-158" target="X0FTAVsm6D2ivHKO1e4E-167" edge="1">
          <mxGeometry relative="1" as="geometry" />
        </mxCell>
        <mxCell id="X0FTAVsm6D2ivHKO1e4E-162" style="edgeStyle=none;rounded=0;orthogonalLoop=1;jettySize=auto;html=1;exitX=1;exitY=0.5;exitDx=0;exitDy=0;entryX=0;entryY=0.5;entryDx=0;entryDy=0;fontFamily=Times New Roman;fontSize=2;endArrow=none;endFill=0;strokeColor=#808080;" parent="X0FTAVsm6D2ivHKO1e4E-172" source="X0FTAVsm6D2ivHKO1e4E-163" target="X0FTAVsm6D2ivHKO1e4E-167" edge="1">
          <mxGeometry relative="1" as="geometry" />
        </mxCell>
        <mxCell id="X0FTAVsm6D2ivHKO1e4E-168" style="edgeStyle=none;rounded=0;orthogonalLoop=1;jettySize=auto;html=1;entryX=1;entryY=0.5;entryDx=0;entryDy=0;fontFamily=Times New Roman;fontSize=2;endArrow=none;endFill=0;strokeColor=#808080;" parent="X0FTAVsm6D2ivHKO1e4E-172" source="X0FTAVsm6D2ivHKO1e4E-148" target="X0FTAVsm6D2ivHKO1e4E-148" edge="1">
          <mxGeometry relative="1" as="geometry" />
        </mxCell>
        <mxCell id="X0FTAVsm6D2ivHKO1e4E-170" value="Generator" style="rounded=1;whiteSpace=wrap;html=1;fontSize=15;fillColor=#d5e8d4;strokeColor=#82b366;strokeWidth=1;fillStyle=auto;fontFamily=Times New Roman;opacity=80;" parent="X0FTAVsm6D2ivHKO1e4E-172" vertex="1">
          <mxGeometry x="-5" y="-55.5" width="70" height="220" as="geometry" />
        </mxCell>
        <mxCell id="X0FTAVsm6D2ivHKO1e4E-174" value="" style="group" parent="1" vertex="1" connectable="0">
          <mxGeometry x="-460.62" y="1169" width="75" height="220" as="geometry" />
        </mxCell>
        <mxCell id="X0FTAVsm6D2ivHKO1e4E-175" value="" style="group" parent="X0FTAVsm6D2ivHKO1e4E-174" vertex="1" connectable="0">
          <mxGeometry x="5" y="55.5" width="70" height="150.5" as="geometry" />
        </mxCell>
        <mxCell id="X0FTAVsm6D2ivHKO1e4E-176" value="" style="group" parent="X0FTAVsm6D2ivHKO1e4E-175" vertex="1" connectable="0">
          <mxGeometry width="60" height="110.5" as="geometry" />
        </mxCell>
        <mxCell id="X0FTAVsm6D2ivHKO1e4E-177" value="" style="rounded=0;whiteSpace=wrap;html=1;fontFamily=Times New Roman;fontSize=2;strokeColor=#808080;" parent="X0FTAVsm6D2ivHKO1e4E-176" vertex="1">
          <mxGeometry width="20" height="20.5" as="geometry" />
        </mxCell>
        <mxCell id="X0FTAVsm6D2ivHKO1e4E-178" style="edgeStyle=none;rounded=0;orthogonalLoop=1;jettySize=auto;html=1;exitX=1;exitY=0.5;exitDx=0;exitDy=0;fontFamily=Times New Roman;fontSize=2;endArrow=none;endFill=0;strokeColor=#808080;" parent="X0FTAVsm6D2ivHKO1e4E-176" source="X0FTAVsm6D2ivHKO1e4E-179" edge="1">
          <mxGeometry relative="1" as="geometry">
            <mxPoint x="40" y="70.5" as="targetPoint" />
          </mxGeometry>
        </mxCell>
        <mxCell id="X0FTAVsm6D2ivHKO1e4E-179" value="" style="rounded=0;whiteSpace=wrap;html=1;fontFamily=Times New Roman;fontSize=2;strokeColor=#808080;" parent="X0FTAVsm6D2ivHKO1e4E-176" vertex="1">
          <mxGeometry y="30.5" width="20" height="20" as="geometry" />
        </mxCell>
        <mxCell id="X0FTAVsm6D2ivHKO1e4E-180" value="" style="rounded=0;whiteSpace=wrap;html=1;fontFamily=Times New Roman;fontSize=2;strokeColor=#808080;" parent="X0FTAVsm6D2ivHKO1e4E-176" vertex="1">
          <mxGeometry y="60.5" width="20" height="20" as="geometry" />
        </mxCell>
        <mxCell id="X0FTAVsm6D2ivHKO1e4E-181" value="" style="rounded=0;whiteSpace=wrap;html=1;fontFamily=Times New Roman;fontSize=2;strokeColor=#808080;" parent="X0FTAVsm6D2ivHKO1e4E-176" vertex="1">
          <mxGeometry y="90.5" width="20" height="20" as="geometry" />
        </mxCell>
        <mxCell id="X0FTAVsm6D2ivHKO1e4E-182" value="" style="rounded=0;whiteSpace=wrap;html=1;fontFamily=Times New Roman;fontSize=2;strokeColor=#808080;" parent="X0FTAVsm6D2ivHKO1e4E-176" vertex="1">
          <mxGeometry x="40" width="20" height="20" as="geometry" />
        </mxCell>
        <mxCell id="X0FTAVsm6D2ivHKO1e4E-183" style="edgeStyle=orthogonalEdgeStyle;rounded=0;orthogonalLoop=1;jettySize=auto;html=1;entryX=0;entryY=0.5;entryDx=0;entryDy=0;fontFamily=Times New Roman;fontSize=2;endArrow=none;endFill=0;strokeColor=#808080;" parent="X0FTAVsm6D2ivHKO1e4E-176" source="X0FTAVsm6D2ivHKO1e4E-177" target="X0FTAVsm6D2ivHKO1e4E-182" edge="1">
          <mxGeometry relative="1" as="geometry" />
        </mxCell>
        <mxCell id="X0FTAVsm6D2ivHKO1e4E-184" style="edgeStyle=none;rounded=0;orthogonalLoop=1;jettySize=auto;html=1;exitX=1;exitY=0.5;exitDx=0;exitDy=0;entryX=0;entryY=0.5;entryDx=0;entryDy=0;fontFamily=Times New Roman;fontSize=2;endArrow=none;endFill=0;strokeColor=#808080;" parent="X0FTAVsm6D2ivHKO1e4E-176" source="X0FTAVsm6D2ivHKO1e4E-179" target="X0FTAVsm6D2ivHKO1e4E-182" edge="1">
          <mxGeometry relative="1" as="geometry" />
        </mxCell>
        <mxCell id="X0FTAVsm6D2ivHKO1e4E-185" style="edgeStyle=none;rounded=0;orthogonalLoop=1;jettySize=auto;html=1;exitX=1;exitY=0.5;exitDx=0;exitDy=0;entryX=0;entryY=0.5;entryDx=0;entryDy=0;fontFamily=Times New Roman;fontSize=2;endArrow=none;endFill=0;strokeColor=#808080;" parent="X0FTAVsm6D2ivHKO1e4E-176" source="X0FTAVsm6D2ivHKO1e4E-180" target="X0FTAVsm6D2ivHKO1e4E-182" edge="1">
          <mxGeometry relative="1" as="geometry" />
        </mxCell>
        <mxCell id="X0FTAVsm6D2ivHKO1e4E-186" style="edgeStyle=none;rounded=0;orthogonalLoop=1;jettySize=auto;html=1;exitX=1;exitY=0.5;exitDx=0;exitDy=0;entryX=0;entryY=0.5;entryDx=0;entryDy=0;fontFamily=Times New Roman;fontSize=2;endArrow=none;endFill=0;strokeColor=#808080;" parent="X0FTAVsm6D2ivHKO1e4E-176" source="X0FTAVsm6D2ivHKO1e4E-181" target="X0FTAVsm6D2ivHKO1e4E-182" edge="1">
          <mxGeometry relative="1" as="geometry" />
        </mxCell>
        <mxCell id="X0FTAVsm6D2ivHKO1e4E-187" value="" style="rounded=0;whiteSpace=wrap;html=1;fontFamily=Times New Roman;fontSize=2;strokeColor=#808080;" parent="X0FTAVsm6D2ivHKO1e4E-176" vertex="1">
          <mxGeometry x="40" y="30.5" width="20" height="20" as="geometry" />
        </mxCell>
        <mxCell id="X0FTAVsm6D2ivHKO1e4E-188" style="edgeStyle=none;rounded=0;orthogonalLoop=1;jettySize=auto;html=1;entryX=0;entryY=0.5;entryDx=0;entryDy=0;fontFamily=Times New Roman;fontSize=2;endArrow=none;endFill=0;exitX=1;exitY=0.5;exitDx=0;exitDy=0;strokeColor=#808080;" parent="X0FTAVsm6D2ivHKO1e4E-176" source="X0FTAVsm6D2ivHKO1e4E-177" target="X0FTAVsm6D2ivHKO1e4E-187" edge="1">
          <mxGeometry relative="1" as="geometry" />
        </mxCell>
        <mxCell id="X0FTAVsm6D2ivHKO1e4E-189" style="edgeStyle=none;rounded=0;orthogonalLoop=1;jettySize=auto;html=1;exitX=1;exitY=0.5;exitDx=0;exitDy=0;entryX=0;entryY=0.5;entryDx=0;entryDy=0;fontFamily=Times New Roman;fontSize=2;endArrow=none;endFill=0;strokeColor=#808080;" parent="X0FTAVsm6D2ivHKO1e4E-176" source="X0FTAVsm6D2ivHKO1e4E-179" target="X0FTAVsm6D2ivHKO1e4E-187" edge="1">
          <mxGeometry relative="1" as="geometry" />
        </mxCell>
        <mxCell id="X0FTAVsm6D2ivHKO1e4E-190" style="edgeStyle=none;rounded=0;orthogonalLoop=1;jettySize=auto;html=1;exitX=1;exitY=0.5;exitDx=0;exitDy=0;entryX=0;entryY=0.5;entryDx=0;entryDy=0;fontFamily=Times New Roman;fontSize=2;endArrow=none;endFill=0;strokeColor=#808080;" parent="X0FTAVsm6D2ivHKO1e4E-176" source="X0FTAVsm6D2ivHKO1e4E-180" target="X0FTAVsm6D2ivHKO1e4E-187" edge="1">
          <mxGeometry relative="1" as="geometry" />
        </mxCell>
        <mxCell id="X0FTAVsm6D2ivHKO1e4E-191" style="edgeStyle=none;rounded=0;orthogonalLoop=1;jettySize=auto;html=1;exitX=1;exitY=0.5;exitDx=0;exitDy=0;entryX=0;entryY=0.5;entryDx=0;entryDy=0;fontFamily=Times New Roman;fontSize=2;endArrow=none;endFill=0;strokeColor=#808080;" parent="X0FTAVsm6D2ivHKO1e4E-176" source="X0FTAVsm6D2ivHKO1e4E-181" target="X0FTAVsm6D2ivHKO1e4E-187" edge="1">
          <mxGeometry relative="1" as="geometry" />
        </mxCell>
        <mxCell id="X0FTAVsm6D2ivHKO1e4E-192" value="" style="rounded=0;whiteSpace=wrap;html=1;fontFamily=Times New Roman;fontSize=2;strokeColor=#808080;" parent="X0FTAVsm6D2ivHKO1e4E-176" vertex="1">
          <mxGeometry x="40" y="60.5" width="20" height="20" as="geometry" />
        </mxCell>
        <mxCell id="X0FTAVsm6D2ivHKO1e4E-193" style="edgeStyle=none;rounded=0;orthogonalLoop=1;jettySize=auto;html=1;entryX=0;entryY=0.5;entryDx=0;entryDy=0;fontFamily=Times New Roman;fontSize=2;endArrow=none;endFill=0;exitX=1;exitY=0.5;exitDx=0;exitDy=0;strokeColor=#808080;" parent="X0FTAVsm6D2ivHKO1e4E-176" source="X0FTAVsm6D2ivHKO1e4E-177" target="X0FTAVsm6D2ivHKO1e4E-192" edge="1">
          <mxGeometry relative="1" as="geometry" />
        </mxCell>
        <mxCell id="X0FTAVsm6D2ivHKO1e4E-194" style="edgeStyle=none;rounded=0;orthogonalLoop=1;jettySize=auto;html=1;exitX=1;exitY=0.5;exitDx=0;exitDy=0;entryX=0;entryY=0.5;entryDx=0;entryDy=0;fontFamily=Times New Roman;fontSize=2;endArrow=none;endFill=0;strokeColor=#808080;" parent="X0FTAVsm6D2ivHKO1e4E-176" source="X0FTAVsm6D2ivHKO1e4E-180" target="X0FTAVsm6D2ivHKO1e4E-192" edge="1">
          <mxGeometry relative="1" as="geometry" />
        </mxCell>
        <mxCell id="X0FTAVsm6D2ivHKO1e4E-195" style="edgeStyle=none;rounded=0;orthogonalLoop=1;jettySize=auto;html=1;exitX=1;exitY=0.5;exitDx=0;exitDy=0;entryX=0;entryY=0.5;entryDx=0;entryDy=0;fontFamily=Times New Roman;fontSize=2;endArrow=none;endFill=0;strokeColor=#808080;" parent="X0FTAVsm6D2ivHKO1e4E-176" source="X0FTAVsm6D2ivHKO1e4E-181" target="X0FTAVsm6D2ivHKO1e4E-192" edge="1">
          <mxGeometry relative="1" as="geometry" />
        </mxCell>
        <mxCell id="X0FTAVsm6D2ivHKO1e4E-196" value="" style="rounded=0;whiteSpace=wrap;html=1;fontFamily=Times New Roman;fontSize=2;strokeColor=#808080;" parent="X0FTAVsm6D2ivHKO1e4E-176" vertex="1">
          <mxGeometry x="40" y="90.5" width="20" height="20" as="geometry" />
        </mxCell>
        <mxCell id="X0FTAVsm6D2ivHKO1e4E-197" style="edgeStyle=none;rounded=0;orthogonalLoop=1;jettySize=auto;html=1;entryX=0;entryY=0.5;entryDx=0;entryDy=0;fontFamily=Times New Roman;fontSize=2;endArrow=none;endFill=0;exitX=1;exitY=0.5;exitDx=0;exitDy=0;strokeColor=#808080;" parent="X0FTAVsm6D2ivHKO1e4E-176" source="X0FTAVsm6D2ivHKO1e4E-177" target="X0FTAVsm6D2ivHKO1e4E-196" edge="1">
          <mxGeometry relative="1" as="geometry" />
        </mxCell>
        <mxCell id="X0FTAVsm6D2ivHKO1e4E-198" style="edgeStyle=none;rounded=0;orthogonalLoop=1;jettySize=auto;html=1;exitX=1;exitY=0.5;exitDx=0;exitDy=0;entryX=0;entryY=0.5;entryDx=0;entryDy=0;fontFamily=Times New Roman;fontSize=2;endArrow=none;endFill=0;strokeColor=#808080;" parent="X0FTAVsm6D2ivHKO1e4E-176" source="X0FTAVsm6D2ivHKO1e4E-179" target="X0FTAVsm6D2ivHKO1e4E-196" edge="1">
          <mxGeometry relative="1" as="geometry" />
        </mxCell>
        <mxCell id="X0FTAVsm6D2ivHKO1e4E-199" style="edgeStyle=none;rounded=0;orthogonalLoop=1;jettySize=auto;html=1;exitX=1;exitY=0.5;exitDx=0;exitDy=0;entryX=0;entryY=0.5;entryDx=0;entryDy=0;fontFamily=Times New Roman;fontSize=2;endArrow=none;endFill=0;strokeColor=#808080;" parent="X0FTAVsm6D2ivHKO1e4E-176" source="X0FTAVsm6D2ivHKO1e4E-180" target="X0FTAVsm6D2ivHKO1e4E-196" edge="1">
          <mxGeometry relative="1" as="geometry" />
        </mxCell>
        <mxCell id="X0FTAVsm6D2ivHKO1e4E-200" style="edgeStyle=none;rounded=0;orthogonalLoop=1;jettySize=auto;html=1;exitX=1;exitY=0.5;exitDx=0;exitDy=0;entryX=0;entryY=0.5;entryDx=0;entryDy=0;fontFamily=Times New Roman;fontSize=2;endArrow=none;endFill=0;strokeColor=#808080;" parent="X0FTAVsm6D2ivHKO1e4E-176" source="X0FTAVsm6D2ivHKO1e4E-181" target="X0FTAVsm6D2ivHKO1e4E-196" edge="1">
          <mxGeometry relative="1" as="geometry" />
        </mxCell>
        <mxCell id="X0FTAVsm6D2ivHKO1e4E-201" style="edgeStyle=none;rounded=0;orthogonalLoop=1;jettySize=auto;html=1;entryX=1;entryY=0.5;entryDx=0;entryDy=0;fontFamily=Times New Roman;fontSize=2;endArrow=none;endFill=0;strokeColor=#808080;" parent="X0FTAVsm6D2ivHKO1e4E-176" source="X0FTAVsm6D2ivHKO1e4E-177" target="X0FTAVsm6D2ivHKO1e4E-177" edge="1">
          <mxGeometry relative="1" as="geometry" />
        </mxCell>
        <mxCell id="X0FTAVsm6D2ivHKO1e4E-202" value="Reranker" style="rounded=1;whiteSpace=wrap;html=1;fontSize=15;fillColor=#dae8fc;strokeColor=#6c8ebf;strokeWidth=1;fillStyle=auto;fontFamily=Times New Roman;opacity=80;" parent="X0FTAVsm6D2ivHKO1e4E-174" vertex="1">
          <mxGeometry width="70" height="220" as="geometry" />
        </mxCell>
        <mxCell id="X0FTAVsm6D2ivHKO1e4E-211" style="edgeStyle=none;rounded=0;orthogonalLoop=1;jettySize=auto;html=1;entryX=-0.003;entryY=0.068;entryDx=0;entryDy=0;entryPerimeter=0;strokeColor=#000000;fontFamily=Times New Roman;fontSize=2;endArrow=classicThin;endFill=1;" parent="1" source="X0FTAVsm6D2ivHKO1e4E-203" target="X0FTAVsm6D2ivHKO1e4E-170" edge="1">
          <mxGeometry relative="1" as="geometry" />
        </mxCell>
        <mxCell id="X0FTAVsm6D2ivHKO1e4E-203" value="Er" style="text;html=1;align=right;verticalAlign=middle;resizable=0;points=[];autosize=1;strokeColor=none;fillColor=none;fontSize=12;fontFamily=Times New Roman;" parent="1" vertex="1">
          <mxGeometry x="-811" y="1169" width="30" height="30" as="geometry" />
        </mxCell>
        <mxCell id="X0FTAVsm6D2ivHKO1e4E-212" style="edgeStyle=none;rounded=0;orthogonalLoop=1;jettySize=auto;html=1;entryX=-0.003;entryY=0.219;entryDx=0;entryDy=0;entryPerimeter=0;strokeColor=#000000;fontFamily=Times New Roman;fontSize=2;endArrow=classicThin;endFill=1;" parent="1" source="X0FTAVsm6D2ivHKO1e4E-204" target="X0FTAVsm6D2ivHKO1e4E-170" edge="1">
          <mxGeometry relative="1" as="geometry" />
        </mxCell>
        <mxCell id="X0FTAVsm6D2ivHKO1e4E-204" value="lebt" style="text;html=1;align=right;verticalAlign=middle;resizable=0;points=[];autosize=1;strokeColor=none;fillColor=none;fontSize=12;fontFamily=Times New Roman;" parent="1" vertex="1">
          <mxGeometry x="-821" y="1202" width="40" height="30" as="geometry" />
        </mxCell>
        <mxCell id="X0FTAVsm6D2ivHKO1e4E-213" style="edgeStyle=none;rounded=0;orthogonalLoop=1;jettySize=auto;html=1;entryX=-0.009;entryY=0.354;entryDx=0;entryDy=0;entryPerimeter=0;strokeColor=#000000;fontFamily=Times New Roman;fontSize=2;endArrow=classicThin;endFill=1;" parent="1" source="X0FTAVsm6D2ivHKO1e4E-205" target="X0FTAVsm6D2ivHKO1e4E-170" edge="1">
          <mxGeometry relative="1" as="geometry" />
        </mxCell>
        <mxCell id="X0FTAVsm6D2ivHKO1e4E-205" value="..." style="text;html=1;align=right;verticalAlign=middle;resizable=0;points=[];autosize=1;strokeColor=none;fillColor=none;fontSize=12;fontFamily=Times New Roman;" parent="1" vertex="1">
          <mxGeometry x="-811" y="1232" width="30" height="30" as="geometry" />
        </mxCell>
        <mxCell id="X0FTAVsm6D2ivHKO1e4E-214" style="edgeStyle=none;rounded=0;orthogonalLoop=1;jettySize=auto;html=1;entryX=0;entryY=0.5;entryDx=0;entryDy=0;strokeColor=#000000;fontFamily=Times New Roman;fontSize=2;endArrow=classicThin;endFill=1;" parent="1" source="X0FTAVsm6D2ivHKO1e4E-206" target="X0FTAVsm6D2ivHKO1e4E-170" edge="1">
          <mxGeometry relative="1" as="geometry" />
        </mxCell>
        <mxCell id="X0FTAVsm6D2ivHKO1e4E-206" value="He" style="text;html=1;align=right;verticalAlign=middle;resizable=0;points=[];autosize=1;strokeColor=none;fillColor=none;fontSize=12;fontFamily=Times New Roman;" parent="1" vertex="1">
          <mxGeometry x="-821" y="1264" width="40" height="30" as="geometry" />
        </mxCell>
        <mxCell id="X0FTAVsm6D2ivHKO1e4E-215" style="edgeStyle=none;rounded=0;orthogonalLoop=1;jettySize=auto;html=1;entryX=-0.011;entryY=0.65;entryDx=0;entryDy=0;entryPerimeter=0;strokeColor=#000000;fontFamily=Times New Roman;fontSize=2;endArrow=classicThin;endFill=1;" parent="1" source="X0FTAVsm6D2ivHKO1e4E-207" target="X0FTAVsm6D2ivHKO1e4E-170" edge="1">
          <mxGeometry relative="1" as="geometry" />
        </mxCell>
        <mxCell id="X0FTAVsm6D2ivHKO1e4E-207" value="&lt;font color=&quot;#ff0000&quot; style=&quot;font-size: 10px;&quot;&gt;&lt;b style=&quot;font-size: 10px;&quot;&gt;[MASK]&lt;/b&gt;&lt;/font&gt;" style="text;html=1;align=right;verticalAlign=middle;resizable=0;points=[];autosize=1;strokeColor=none;fillColor=none;fontSize=10;fontFamily=Times New Roman;spacingLeft=-25;" parent="1" vertex="1">
          <mxGeometry x="-821" y="1297" width="40" height="30" as="geometry" />
        </mxCell>
        <mxCell id="X0FTAVsm6D2ivHKO1e4E-216" style="edgeStyle=none;rounded=0;orthogonalLoop=1;jettySize=auto;html=1;entryX=-0.009;entryY=0.786;entryDx=0;entryDy=0;entryPerimeter=0;strokeColor=#000000;fontFamily=Times New Roman;fontSize=2;endArrow=classicThin;endFill=1;" parent="1" source="X0FTAVsm6D2ivHKO1e4E-208" target="X0FTAVsm6D2ivHKO1e4E-170" edge="1">
          <mxGeometry relative="1" as="geometry" />
        </mxCell>
        <mxCell id="X0FTAVsm6D2ivHKO1e4E-208" value="village" style="text;html=1;align=right;verticalAlign=middle;resizable=0;points=[];autosize=1;strokeColor=none;fillColor=none;fontSize=12;fontFamily=Times New Roman;spacingLeft=-10;" parent="1" vertex="1">
          <mxGeometry x="-821" y="1327" width="40" height="30" as="geometry" />
        </mxCell>
        <mxCell id="X0FTAVsm6D2ivHKO1e4E-217" style="edgeStyle=none;rounded=0;orthogonalLoop=1;jettySize=auto;html=1;entryX=-0.008;entryY=0.932;entryDx=0;entryDy=0;entryPerimeter=0;strokeColor=#000000;fontFamily=Times New Roman;fontSize=2;endArrow=classicThin;endFill=1;" parent="1" source="X0FTAVsm6D2ivHKO1e4E-209" target="X0FTAVsm6D2ivHKO1e4E-170" edge="1">
          <mxGeometry relative="1" as="geometry" />
        </mxCell>
        <mxCell id="X0FTAVsm6D2ivHKO1e4E-209" value="." style="text;html=1;align=right;verticalAlign=middle;resizable=0;points=[];autosize=1;strokeColor=none;fillColor=none;fontSize=12;fontFamily=Times New Roman;" parent="1" vertex="1">
          <mxGeometry x="-811" y="1359" width="30" height="30" as="geometry" />
        </mxCell>
        <mxCell id="X0FTAVsm6D2ivHKO1e4E-218" style="edgeStyle=none;rounded=0;orthogonalLoop=1;jettySize=auto;html=1;entryX=-0.003;entryY=0.068;entryDx=0;entryDy=0;entryPerimeter=0;strokeColor=#000000;fontFamily=Times New Roman;fontSize=2;endArrow=classicThin;endFill=1;" parent="1" source="X0FTAVsm6D2ivHKO1e4E-219" edge="1">
          <mxGeometry relative="1" as="geometry">
            <mxPoint x="-460.33000000000004" y="1183.96" as="targetPoint" />
          </mxGeometry>
        </mxCell>
        <mxCell id="X0FTAVsm6D2ivHKO1e4E-219" value="Er" style="text;html=1;align=right;verticalAlign=middle;resizable=0;points=[];autosize=1;strokeColor=none;fillColor=none;fontSize=12;fontFamily=Times New Roman;" parent="1" vertex="1">
          <mxGeometry x="-514.12" y="1169" width="30" height="30" as="geometry" />
        </mxCell>
        <mxCell id="X0FTAVsm6D2ivHKO1e4E-220" style="edgeStyle=none;rounded=0;orthogonalLoop=1;jettySize=auto;html=1;entryX=-0.003;entryY=0.219;entryDx=0;entryDy=0;entryPerimeter=0;strokeColor=#000000;fontFamily=Times New Roman;fontSize=2;endArrow=classicThin;endFill=1;" parent="1" source="X0FTAVsm6D2ivHKO1e4E-221" edge="1">
          <mxGeometry relative="1" as="geometry">
            <mxPoint x="-460.33000000000004" y="1217.1799999999998" as="targetPoint" />
          </mxGeometry>
        </mxCell>
        <mxCell id="X0FTAVsm6D2ivHKO1e4E-221" value="lebt" style="text;html=1;align=right;verticalAlign=middle;resizable=0;points=[];autosize=1;strokeColor=none;fillColor=none;fontSize=12;fontFamily=Times New Roman;" parent="1" vertex="1">
          <mxGeometry x="-524.12" y="1202" width="40" height="30" as="geometry" />
        </mxCell>
        <mxCell id="X0FTAVsm6D2ivHKO1e4E-222" style="edgeStyle=none;rounded=0;orthogonalLoop=1;jettySize=auto;html=1;entryX=-0.009;entryY=0.354;entryDx=0;entryDy=0;entryPerimeter=0;strokeColor=#000000;fontFamily=Times New Roman;fontSize=2;endArrow=classicThin;endFill=1;" parent="1" source="X0FTAVsm6D2ivHKO1e4E-223" edge="1">
          <mxGeometry relative="1" as="geometry">
            <mxPoint x="-460.7499999999999" y="1246.8799999999999" as="targetPoint" />
          </mxGeometry>
        </mxCell>
        <mxCell id="X0FTAVsm6D2ivHKO1e4E-223" value="..." style="text;html=1;align=right;verticalAlign=middle;resizable=0;points=[];autosize=1;strokeColor=none;fillColor=none;fontSize=12;fontFamily=Times New Roman;" parent="1" vertex="1">
          <mxGeometry x="-514.12" y="1232" width="30" height="30" as="geometry" />
        </mxCell>
        <mxCell id="X0FTAVsm6D2ivHKO1e4E-224" style="edgeStyle=none;rounded=0;orthogonalLoop=1;jettySize=auto;html=1;entryX=0;entryY=0.5;entryDx=0;entryDy=0;strokeColor=#000000;fontFamily=Times New Roman;fontSize=2;endArrow=classicThin;endFill=1;" parent="1" source="X0FTAVsm6D2ivHKO1e4E-225" edge="1">
          <mxGeometry relative="1" as="geometry">
            <mxPoint x="-460.12" y="1279" as="targetPoint" />
          </mxGeometry>
        </mxCell>
        <mxCell id="X0FTAVsm6D2ivHKO1e4E-225" value="He" style="text;html=1;align=right;verticalAlign=middle;resizable=0;points=[];autosize=1;strokeColor=none;fillColor=none;fontSize=12;fontFamily=Times New Roman;" parent="1" vertex="1">
          <mxGeometry x="-524.12" y="1264" width="40" height="30" as="geometry" />
        </mxCell>
        <mxCell id="X0FTAVsm6D2ivHKO1e4E-226" style="edgeStyle=none;rounded=0;orthogonalLoop=1;jettySize=auto;html=1;entryX=-0.011;entryY=0.65;entryDx=0;entryDy=0;entryPerimeter=0;strokeColor=#000000;fontFamily=Times New Roman;fontSize=2;endArrow=classicThin;endFill=1;" parent="1" source="X0FTAVsm6D2ivHKO1e4E-227" edge="1">
          <mxGeometry relative="1" as="geometry">
            <mxPoint x="-460.8900000000001" y="1312" as="targetPoint" />
          </mxGeometry>
        </mxCell>
        <mxCell id="X0FTAVsm6D2ivHKO1e4E-227" value="&lt;font color=&quot;#ff0000&quot; style=&quot;font-size: 12px;&quot;&gt;pool&lt;/font&gt;" style="text;html=1;align=right;verticalAlign=middle;resizable=0;points=[];autosize=1;strokeColor=none;fillColor=none;fontSize=12;fontFamily=Times New Roman;fontStyle=1" parent="1" vertex="1">
          <mxGeometry x="-534.12" y="1297" width="50" height="30" as="geometry" />
        </mxCell>
        <mxCell id="X0FTAVsm6D2ivHKO1e4E-228" style="edgeStyle=none;rounded=0;orthogonalLoop=1;jettySize=auto;html=1;entryX=-0.009;entryY=0.786;entryDx=0;entryDy=0;entryPerimeter=0;strokeColor=#000000;fontFamily=Times New Roman;fontSize=2;endArrow=classicThin;endFill=1;" parent="1" source="X0FTAVsm6D2ivHKO1e4E-229" edge="1">
          <mxGeometry relative="1" as="geometry">
            <mxPoint x="-460.7499999999999" y="1341.92" as="targetPoint" />
          </mxGeometry>
        </mxCell>
        <mxCell id="X0FTAVsm6D2ivHKO1e4E-229" value="village" style="text;html=1;align=right;verticalAlign=middle;resizable=0;points=[];autosize=1;strokeColor=none;fillColor=none;fontSize=12;fontFamily=Times New Roman;" parent="1" vertex="1">
          <mxGeometry x="-544.12" y="1327" width="60" height="30" as="geometry" />
        </mxCell>
        <mxCell id="X0FTAVsm6D2ivHKO1e4E-230" style="edgeStyle=none;rounded=0;orthogonalLoop=1;jettySize=auto;html=1;entryX=-0.008;entryY=0.932;entryDx=0;entryDy=0;entryPerimeter=0;strokeColor=#000000;fontFamily=Times New Roman;fontSize=2;endArrow=classicThin;endFill=1;" parent="1" source="X0FTAVsm6D2ivHKO1e4E-231" edge="1">
          <mxGeometry relative="1" as="geometry">
            <mxPoint x="-460.68000000000006" y="1374.04" as="targetPoint" />
          </mxGeometry>
        </mxCell>
        <mxCell id="X0FTAVsm6D2ivHKO1e4E-231" value="." style="text;html=1;align=right;verticalAlign=middle;resizable=0;points=[];autosize=1;strokeColor=none;fillColor=none;fontSize=12;fontFamily=Times New Roman;" parent="1" vertex="1">
          <mxGeometry x="-514.12" y="1359" width="30" height="30" as="geometry" />
        </mxCell>
        <mxCell id="X0FTAVsm6D2ivHKO1e4E-255" value="" style="shape=flexArrow;endArrow=classic;html=1;rounded=0;strokeColor=#000000;fontFamily=Times New Roman;fontSize=12;fontColor=#000000;width=5;endWidth=7.027027027027027;endSize=2.926126126126126;fillColor=none;exitX=0.998;exitY=0.649;exitDx=0;exitDy=0;exitPerimeter=0;entryX=0;entryY=0.635;entryDx=0;entryDy=0;entryPerimeter=0;" parent="1" source="X0FTAVsm6D2ivHKO1e4E-170" edge="1">
          <mxGeometry width="50" height="50" relative="1" as="geometry">
            <mxPoint x="-687.5" y="1312.04" as="sourcePoint" />
            <mxPoint x="-641" y="1311.7475000000002" as="targetPoint" />
            <Array as="points">
              <mxPoint x="-673" y="1311.94" />
            </Array>
          </mxGeometry>
        </mxCell>
        <mxCell id="X0FTAVsm6D2ivHKO1e4E-261" value="" style="endArrow=classic;html=1;rounded=0;strokeColor=#000000;fontFamily=Times New Roman;fontSize=12;fontColor=#000000;exitX=0.982;exitY=0.16;exitDx=0;exitDy=0;exitPerimeter=0;" parent="1" edge="1">
          <mxGeometry width="50" height="50" relative="1" as="geometry">
            <mxPoint x="-560.44" y="1311.78" as="sourcePoint" />
            <mxPoint x="-514.12" y="1312.106188466948" as="targetPoint" />
          </mxGeometry>
        </mxCell>
        <mxCell id="X0FTAVsm6D2ivHKO1e4E-262" value="Negative&lt;br&gt;Sampling" style="edgeLabel;html=1;align=center;verticalAlign=middle;resizable=0;points=[];fontSize=12;fontFamily=Times New Roman;fontColor=#000000;" parent="X0FTAVsm6D2ivHKO1e4E-261" vertex="1" connectable="0">
          <mxGeometry x="-0.2915" relative="1" as="geometry">
            <mxPoint x="11" y="-19" as="offset" />
          </mxGeometry>
        </mxCell>
        <mxCell id="X0FTAVsm6D2ivHKO1e4E-266" value="" style="rounded=0;whiteSpace=wrap;html=1;labelBorderColor=none;strokeColor=#000000;strokeWidth=1;fontFamily=Times New Roman;fontSize=12;fillColor=none;opacity=80;rotation=90;" parent="1" vertex="1">
          <mxGeometry x="-681.75" y="1295.25" width="23.38" height="5" as="geometry" />
        </mxCell>
        <mxCell id="X0FTAVsm6D2ivHKO1e4E-279" value="&lt;font color=&quot;#000000&quot;&gt;po&lt;/font&gt;&lt;font color=&quot;#b3b3b3&quot;&gt;ol&lt;/font&gt;&lt;font color=&quot;#000000&quot;&gt;&amp;nbsp; &amp;nbsp; &amp;nbsp; &amp;nbsp; 0.62&lt;br&gt;po&lt;/font&gt;&lt;font color=&quot;#b3b3b3&quot;&gt;or&lt;/font&gt;&lt;font color=&quot;#000000&quot;&gt;&amp;nbsp; &amp;nbsp; &amp;nbsp; &amp;nbsp; 0.21&lt;/font&gt;&lt;br&gt;&lt;font color=&quot;#b3b3b3&quot;&gt;penury&lt;/font&gt;&lt;font color=&quot;#000000&quot;&gt;&amp;nbsp; &amp;nbsp; 0.00&lt;br&gt;...&amp;nbsp; &amp;nbsp; &amp;nbsp; &amp;nbsp; &amp;nbsp; &amp;nbsp; &amp;nbsp;...&lt;br&gt;&lt;/font&gt;" style="rounded=0;whiteSpace=wrap;html=1;labelBorderColor=none;strokeColor=none;strokeWidth=1;fontFamily=Times New Roman;fontSize=12;fontColor=#FF0000;fillColor=none;opacity=80;align=left;" parent="1" vertex="1">
          <mxGeometry x="-635" y="1302.5" width="80" height="58" as="geometry" />
        </mxCell>
        <mxCell id="X0FTAVsm6D2ivHKO1e4E-280" value="Vocab.&amp;nbsp; &amp;nbsp; Prob." style="text;html=1;align=left;verticalAlign=middle;resizable=0;points=[];autosize=1;strokeColor=none;fillColor=none;fontSize=12;fontFamily=Times New Roman;fontColor=#000000;" parent="1" vertex="1">
          <mxGeometry x="-636" y="1277.5" width="90" height="30" as="geometry" />
        </mxCell>
        <mxCell id="Nf2qhVUPpaJzsyXt2UPL-1" value="Post&lt;br&gt;Filtering" style="text;html=1;align=center;verticalAlign=middle;resizable=0;points=[];autosize=1;strokeColor=none;fillColor=none;fontSize=12;fontFamily=Times New Roman;" parent="1" vertex="1">
          <mxGeometry x="-694" y="1309" width="60" height="40" as="geometry" />
        </mxCell>
        <mxCell id="9Z_DaHX2NAJnU89GjVGX-145" value="" style="group" vertex="1" connectable="0" parent="1">
          <mxGeometry x="-739" y="1480" width="110" height="290" as="geometry" />
        </mxCell>
        <mxCell id="9Z_DaHX2NAJnU89GjVGX-34" value="" style="rounded=1;whiteSpace=wrap;html=1;strokeColor=#999999;" vertex="1" parent="9Z_DaHX2NAJnU89GjVGX-145">
          <mxGeometry x="13" y="154" width="84" height="130" as="geometry" />
        </mxCell>
        <mxCell id="9Z_DaHX2NAJnU89GjVGX-35" value="" style="group" vertex="1" connectable="0" parent="9Z_DaHX2NAJnU89GjVGX-145">
          <mxGeometry x="25" y="164" width="60" height="110.5" as="geometry" />
        </mxCell>
        <mxCell id="9Z_DaHX2NAJnU89GjVGX-36" value="" style="rounded=0;whiteSpace=wrap;html=1;fontFamily=Times New Roman;fontSize=2;strokeColor=#808080;" vertex="1" parent="9Z_DaHX2NAJnU89GjVGX-35">
          <mxGeometry width="20" height="20.5" as="geometry" />
        </mxCell>
        <mxCell id="9Z_DaHX2NAJnU89GjVGX-37" style="edgeStyle=none;rounded=0;orthogonalLoop=1;jettySize=auto;html=1;exitX=1;exitY=0.5;exitDx=0;exitDy=0;fontFamily=Times New Roman;fontSize=2;endArrow=none;endFill=0;strokeColor=#808080;" edge="1" parent="9Z_DaHX2NAJnU89GjVGX-35" source="9Z_DaHX2NAJnU89GjVGX-38">
          <mxGeometry relative="1" as="geometry">
            <mxPoint x="40" y="70.5" as="targetPoint" />
          </mxGeometry>
        </mxCell>
        <mxCell id="9Z_DaHX2NAJnU89GjVGX-38" value="" style="rounded=0;whiteSpace=wrap;html=1;fontFamily=Times New Roman;fontSize=2;strokeColor=#808080;" vertex="1" parent="9Z_DaHX2NAJnU89GjVGX-35">
          <mxGeometry y="30.5" width="20" height="20" as="geometry" />
        </mxCell>
        <mxCell id="9Z_DaHX2NAJnU89GjVGX-39" value="" style="rounded=0;whiteSpace=wrap;html=1;fontFamily=Times New Roman;fontSize=2;strokeColor=#808080;" vertex="1" parent="9Z_DaHX2NAJnU89GjVGX-35">
          <mxGeometry y="60.5" width="20" height="20" as="geometry" />
        </mxCell>
        <mxCell id="9Z_DaHX2NAJnU89GjVGX-40" value="" style="rounded=0;whiteSpace=wrap;html=1;fontFamily=Times New Roman;fontSize=2;strokeColor=#808080;" vertex="1" parent="9Z_DaHX2NAJnU89GjVGX-35">
          <mxGeometry y="90.5" width="20" height="20" as="geometry" />
        </mxCell>
        <mxCell id="9Z_DaHX2NAJnU89GjVGX-41" value="" style="rounded=0;whiteSpace=wrap;html=1;fontFamily=Times New Roman;fontSize=2;strokeColor=#808080;" vertex="1" parent="9Z_DaHX2NAJnU89GjVGX-35">
          <mxGeometry x="40" width="20" height="20" as="geometry" />
        </mxCell>
        <mxCell id="9Z_DaHX2NAJnU89GjVGX-42" style="edgeStyle=orthogonalEdgeStyle;rounded=0;orthogonalLoop=1;jettySize=auto;html=1;entryX=0;entryY=0.5;entryDx=0;entryDy=0;fontFamily=Times New Roman;fontSize=2;endArrow=none;endFill=0;strokeColor=#808080;" edge="1" parent="9Z_DaHX2NAJnU89GjVGX-35" source="9Z_DaHX2NAJnU89GjVGX-36" target="9Z_DaHX2NAJnU89GjVGX-41">
          <mxGeometry relative="1" as="geometry" />
        </mxCell>
        <mxCell id="9Z_DaHX2NAJnU89GjVGX-43" style="edgeStyle=none;rounded=0;orthogonalLoop=1;jettySize=auto;html=1;exitX=1;exitY=0.5;exitDx=0;exitDy=0;entryX=0;entryY=0.5;entryDx=0;entryDy=0;fontFamily=Times New Roman;fontSize=2;endArrow=none;endFill=0;strokeColor=#808080;" edge="1" parent="9Z_DaHX2NAJnU89GjVGX-35" source="9Z_DaHX2NAJnU89GjVGX-38" target="9Z_DaHX2NAJnU89GjVGX-41">
          <mxGeometry relative="1" as="geometry" />
        </mxCell>
        <mxCell id="9Z_DaHX2NAJnU89GjVGX-44" style="edgeStyle=none;rounded=0;orthogonalLoop=1;jettySize=auto;html=1;exitX=1;exitY=0.5;exitDx=0;exitDy=0;entryX=0;entryY=0.5;entryDx=0;entryDy=0;fontFamily=Times New Roman;fontSize=2;endArrow=none;endFill=0;strokeColor=#808080;" edge="1" parent="9Z_DaHX2NAJnU89GjVGX-35" source="9Z_DaHX2NAJnU89GjVGX-39" target="9Z_DaHX2NAJnU89GjVGX-41">
          <mxGeometry relative="1" as="geometry" />
        </mxCell>
        <mxCell id="9Z_DaHX2NAJnU89GjVGX-45" style="edgeStyle=none;rounded=0;orthogonalLoop=1;jettySize=auto;html=1;exitX=1;exitY=0.5;exitDx=0;exitDy=0;entryX=0;entryY=0.5;entryDx=0;entryDy=0;fontFamily=Times New Roman;fontSize=2;endArrow=none;endFill=0;strokeColor=#808080;" edge="1" parent="9Z_DaHX2NAJnU89GjVGX-35" source="9Z_DaHX2NAJnU89GjVGX-40" target="9Z_DaHX2NAJnU89GjVGX-41">
          <mxGeometry relative="1" as="geometry" />
        </mxCell>
        <mxCell id="9Z_DaHX2NAJnU89GjVGX-46" value="" style="rounded=0;whiteSpace=wrap;html=1;fontFamily=Times New Roman;fontSize=2;strokeColor=#808080;" vertex="1" parent="9Z_DaHX2NAJnU89GjVGX-35">
          <mxGeometry x="40" y="30.5" width="20" height="20" as="geometry" />
        </mxCell>
        <mxCell id="9Z_DaHX2NAJnU89GjVGX-47" style="edgeStyle=none;rounded=0;orthogonalLoop=1;jettySize=auto;html=1;entryX=0;entryY=0.5;entryDx=0;entryDy=0;fontFamily=Times New Roman;fontSize=2;endArrow=none;endFill=0;exitX=1;exitY=0.5;exitDx=0;exitDy=0;strokeColor=#808080;" edge="1" parent="9Z_DaHX2NAJnU89GjVGX-35" source="9Z_DaHX2NAJnU89GjVGX-36" target="9Z_DaHX2NAJnU89GjVGX-46">
          <mxGeometry relative="1" as="geometry" />
        </mxCell>
        <mxCell id="9Z_DaHX2NAJnU89GjVGX-48" style="edgeStyle=none;rounded=0;orthogonalLoop=1;jettySize=auto;html=1;exitX=1;exitY=0.5;exitDx=0;exitDy=0;entryX=0;entryY=0.5;entryDx=0;entryDy=0;fontFamily=Times New Roman;fontSize=2;endArrow=none;endFill=0;strokeColor=#808080;" edge="1" parent="9Z_DaHX2NAJnU89GjVGX-35" source="9Z_DaHX2NAJnU89GjVGX-38" target="9Z_DaHX2NAJnU89GjVGX-46">
          <mxGeometry relative="1" as="geometry" />
        </mxCell>
        <mxCell id="9Z_DaHX2NAJnU89GjVGX-49" style="edgeStyle=none;rounded=0;orthogonalLoop=1;jettySize=auto;html=1;exitX=1;exitY=0.5;exitDx=0;exitDy=0;entryX=0;entryY=0.5;entryDx=0;entryDy=0;fontFamily=Times New Roman;fontSize=2;endArrow=none;endFill=0;strokeColor=#808080;" edge="1" parent="9Z_DaHX2NAJnU89GjVGX-35" source="9Z_DaHX2NAJnU89GjVGX-39" target="9Z_DaHX2NAJnU89GjVGX-46">
          <mxGeometry relative="1" as="geometry" />
        </mxCell>
        <mxCell id="9Z_DaHX2NAJnU89GjVGX-50" style="edgeStyle=none;rounded=0;orthogonalLoop=1;jettySize=auto;html=1;exitX=1;exitY=0.5;exitDx=0;exitDy=0;entryX=0;entryY=0.5;entryDx=0;entryDy=0;fontFamily=Times New Roman;fontSize=2;endArrow=none;endFill=0;strokeColor=#808080;" edge="1" parent="9Z_DaHX2NAJnU89GjVGX-35" source="9Z_DaHX2NAJnU89GjVGX-40" target="9Z_DaHX2NAJnU89GjVGX-46">
          <mxGeometry relative="1" as="geometry" />
        </mxCell>
        <mxCell id="9Z_DaHX2NAJnU89GjVGX-51" value="" style="rounded=0;whiteSpace=wrap;html=1;fontFamily=Times New Roman;fontSize=2;strokeColor=#808080;" vertex="1" parent="9Z_DaHX2NAJnU89GjVGX-35">
          <mxGeometry x="40" y="60.5" width="20" height="20" as="geometry" />
        </mxCell>
        <mxCell id="9Z_DaHX2NAJnU89GjVGX-52" style="edgeStyle=none;rounded=0;orthogonalLoop=1;jettySize=auto;html=1;entryX=0;entryY=0.5;entryDx=0;entryDy=0;fontFamily=Times New Roman;fontSize=2;endArrow=none;endFill=0;exitX=1;exitY=0.5;exitDx=0;exitDy=0;strokeColor=#808080;" edge="1" parent="9Z_DaHX2NAJnU89GjVGX-35" source="9Z_DaHX2NAJnU89GjVGX-36" target="9Z_DaHX2NAJnU89GjVGX-51">
          <mxGeometry relative="1" as="geometry" />
        </mxCell>
        <mxCell id="9Z_DaHX2NAJnU89GjVGX-53" style="edgeStyle=none;rounded=0;orthogonalLoop=1;jettySize=auto;html=1;exitX=1;exitY=0.5;exitDx=0;exitDy=0;entryX=0;entryY=0.5;entryDx=0;entryDy=0;fontFamily=Times New Roman;fontSize=2;endArrow=none;endFill=0;strokeColor=#808080;" edge="1" parent="9Z_DaHX2NAJnU89GjVGX-35" source="9Z_DaHX2NAJnU89GjVGX-39" target="9Z_DaHX2NAJnU89GjVGX-51">
          <mxGeometry relative="1" as="geometry" />
        </mxCell>
        <mxCell id="9Z_DaHX2NAJnU89GjVGX-54" style="edgeStyle=none;rounded=0;orthogonalLoop=1;jettySize=auto;html=1;exitX=1;exitY=0.5;exitDx=0;exitDy=0;entryX=0;entryY=0.5;entryDx=0;entryDy=0;fontFamily=Times New Roman;fontSize=2;endArrow=none;endFill=0;strokeColor=#808080;" edge="1" parent="9Z_DaHX2NAJnU89GjVGX-35" source="9Z_DaHX2NAJnU89GjVGX-40" target="9Z_DaHX2NAJnU89GjVGX-51">
          <mxGeometry relative="1" as="geometry" />
        </mxCell>
        <mxCell id="9Z_DaHX2NAJnU89GjVGX-55" value="" style="rounded=0;whiteSpace=wrap;html=1;fontFamily=Times New Roman;fontSize=2;strokeColor=#808080;" vertex="1" parent="9Z_DaHX2NAJnU89GjVGX-35">
          <mxGeometry x="40" y="90.5" width="20" height="20" as="geometry" />
        </mxCell>
        <mxCell id="9Z_DaHX2NAJnU89GjVGX-56" style="edgeStyle=none;rounded=0;orthogonalLoop=1;jettySize=auto;html=1;entryX=0;entryY=0.5;entryDx=0;entryDy=0;fontFamily=Times New Roman;fontSize=2;endArrow=none;endFill=0;exitX=1;exitY=0.5;exitDx=0;exitDy=0;strokeColor=#808080;" edge="1" parent="9Z_DaHX2NAJnU89GjVGX-35" source="9Z_DaHX2NAJnU89GjVGX-36" target="9Z_DaHX2NAJnU89GjVGX-55">
          <mxGeometry relative="1" as="geometry" />
        </mxCell>
        <mxCell id="9Z_DaHX2NAJnU89GjVGX-57" style="edgeStyle=none;rounded=0;orthogonalLoop=1;jettySize=auto;html=1;exitX=1;exitY=0.5;exitDx=0;exitDy=0;entryX=0;entryY=0.5;entryDx=0;entryDy=0;fontFamily=Times New Roman;fontSize=2;endArrow=none;endFill=0;strokeColor=#808080;" edge="1" parent="9Z_DaHX2NAJnU89GjVGX-35" source="9Z_DaHX2NAJnU89GjVGX-38" target="9Z_DaHX2NAJnU89GjVGX-55">
          <mxGeometry relative="1" as="geometry" />
        </mxCell>
        <mxCell id="9Z_DaHX2NAJnU89GjVGX-58" style="edgeStyle=none;rounded=0;orthogonalLoop=1;jettySize=auto;html=1;exitX=1;exitY=0.5;exitDx=0;exitDy=0;entryX=0;entryY=0.5;entryDx=0;entryDy=0;fontFamily=Times New Roman;fontSize=2;endArrow=none;endFill=0;strokeColor=#808080;" edge="1" parent="9Z_DaHX2NAJnU89GjVGX-35" source="9Z_DaHX2NAJnU89GjVGX-39" target="9Z_DaHX2NAJnU89GjVGX-55">
          <mxGeometry relative="1" as="geometry" />
        </mxCell>
        <mxCell id="9Z_DaHX2NAJnU89GjVGX-59" style="edgeStyle=none;rounded=0;orthogonalLoop=1;jettySize=auto;html=1;exitX=1;exitY=0.5;exitDx=0;exitDy=0;entryX=0;entryY=0.5;entryDx=0;entryDy=0;fontFamily=Times New Roman;fontSize=2;endArrow=none;endFill=0;strokeColor=#808080;" edge="1" parent="9Z_DaHX2NAJnU89GjVGX-35" source="9Z_DaHX2NAJnU89GjVGX-40" target="9Z_DaHX2NAJnU89GjVGX-55">
          <mxGeometry relative="1" as="geometry" />
        </mxCell>
        <mxCell id="9Z_DaHX2NAJnU89GjVGX-60" style="edgeStyle=none;rounded=0;orthogonalLoop=1;jettySize=auto;html=1;entryX=1;entryY=0.5;entryDx=0;entryDy=0;fontFamily=Times New Roman;fontSize=2;endArrow=none;endFill=0;strokeColor=#808080;" edge="1" parent="9Z_DaHX2NAJnU89GjVGX-35" source="9Z_DaHX2NAJnU89GjVGX-36" target="9Z_DaHX2NAJnU89GjVGX-36">
          <mxGeometry relative="1" as="geometry" />
        </mxCell>
        <mxCell id="9Z_DaHX2NAJnU89GjVGX-61" value="" style="endArrow=classic;html=1;rounded=0;strokeColor=#999999;entryX=0.5;entryY=0;entryDx=0;entryDy=0;exitX=0.5;exitY=1;exitDx=0;exitDy=0;" edge="1" parent="9Z_DaHX2NAJnU89GjVGX-145" source="9Z_DaHX2NAJnU89GjVGX-88" target="9Z_DaHX2NAJnU89GjVGX-34">
          <mxGeometry width="50" height="50" relative="1" as="geometry">
            <mxPoint x="55" y="136" as="sourcePoint" />
            <mxPoint x="105" y="91.5" as="targetPoint" />
          </mxGeometry>
        </mxCell>
        <mxCell id="9Z_DaHX2NAJnU89GjVGX-88" value="" style="rounded=1;whiteSpace=wrap;html=1;strokeColor=#999999;" vertex="1" parent="9Z_DaHX2NAJnU89GjVGX-145">
          <mxGeometry x="13" y="6" width="84" height="130" as="geometry" />
        </mxCell>
        <mxCell id="9Z_DaHX2NAJnU89GjVGX-89" value="" style="group" vertex="1" connectable="0" parent="9Z_DaHX2NAJnU89GjVGX-145">
          <mxGeometry x="25" y="16" width="60" height="110.5" as="geometry" />
        </mxCell>
        <mxCell id="9Z_DaHX2NAJnU89GjVGX-90" value="" style="rounded=0;whiteSpace=wrap;html=1;fontFamily=Times New Roman;fontSize=2;strokeColor=#808080;" vertex="1" parent="9Z_DaHX2NAJnU89GjVGX-89">
          <mxGeometry width="20" height="20.5" as="geometry" />
        </mxCell>
        <mxCell id="9Z_DaHX2NAJnU89GjVGX-91" style="edgeStyle=none;rounded=0;orthogonalLoop=1;jettySize=auto;html=1;exitX=1;exitY=0.5;exitDx=0;exitDy=0;fontFamily=Times New Roman;fontSize=2;endArrow=none;endFill=0;strokeColor=#808080;" edge="1" parent="9Z_DaHX2NAJnU89GjVGX-89" source="9Z_DaHX2NAJnU89GjVGX-92">
          <mxGeometry relative="1" as="geometry">
            <mxPoint x="40" y="70.5" as="targetPoint" />
          </mxGeometry>
        </mxCell>
        <mxCell id="9Z_DaHX2NAJnU89GjVGX-92" value="" style="rounded=0;whiteSpace=wrap;html=1;fontFamily=Times New Roman;fontSize=2;strokeColor=#808080;" vertex="1" parent="9Z_DaHX2NAJnU89GjVGX-89">
          <mxGeometry y="30.5" width="20" height="20" as="geometry" />
        </mxCell>
        <mxCell id="9Z_DaHX2NAJnU89GjVGX-93" value="" style="rounded=0;whiteSpace=wrap;html=1;fontFamily=Times New Roman;fontSize=2;strokeColor=#808080;" vertex="1" parent="9Z_DaHX2NAJnU89GjVGX-89">
          <mxGeometry y="60.5" width="20" height="20" as="geometry" />
        </mxCell>
        <mxCell id="9Z_DaHX2NAJnU89GjVGX-94" value="" style="rounded=0;whiteSpace=wrap;html=1;fontFamily=Times New Roman;fontSize=2;strokeColor=#808080;" vertex="1" parent="9Z_DaHX2NAJnU89GjVGX-89">
          <mxGeometry y="90.5" width="20" height="20" as="geometry" />
        </mxCell>
        <mxCell id="9Z_DaHX2NAJnU89GjVGX-95" value="" style="rounded=0;whiteSpace=wrap;html=1;fontFamily=Times New Roman;fontSize=2;strokeColor=#808080;" vertex="1" parent="9Z_DaHX2NAJnU89GjVGX-89">
          <mxGeometry x="40" width="20" height="20" as="geometry" />
        </mxCell>
        <mxCell id="9Z_DaHX2NAJnU89GjVGX-96" style="edgeStyle=orthogonalEdgeStyle;rounded=0;orthogonalLoop=1;jettySize=auto;html=1;entryX=0;entryY=0.5;entryDx=0;entryDy=0;fontFamily=Times New Roman;fontSize=2;endArrow=none;endFill=0;strokeColor=#808080;" edge="1" parent="9Z_DaHX2NAJnU89GjVGX-89" source="9Z_DaHX2NAJnU89GjVGX-90" target="9Z_DaHX2NAJnU89GjVGX-95">
          <mxGeometry relative="1" as="geometry" />
        </mxCell>
        <mxCell id="9Z_DaHX2NAJnU89GjVGX-97" style="edgeStyle=none;rounded=0;orthogonalLoop=1;jettySize=auto;html=1;exitX=1;exitY=0.5;exitDx=0;exitDy=0;entryX=0;entryY=0.5;entryDx=0;entryDy=0;fontFamily=Times New Roman;fontSize=2;endArrow=none;endFill=0;strokeColor=#808080;" edge="1" parent="9Z_DaHX2NAJnU89GjVGX-89" source="9Z_DaHX2NAJnU89GjVGX-92" target="9Z_DaHX2NAJnU89GjVGX-95">
          <mxGeometry relative="1" as="geometry" />
        </mxCell>
        <mxCell id="9Z_DaHX2NAJnU89GjVGX-98" style="edgeStyle=none;rounded=0;orthogonalLoop=1;jettySize=auto;html=1;exitX=1;exitY=0.5;exitDx=0;exitDy=0;entryX=0;entryY=0.5;entryDx=0;entryDy=0;fontFamily=Times New Roman;fontSize=2;endArrow=none;endFill=0;strokeColor=#808080;" edge="1" parent="9Z_DaHX2NAJnU89GjVGX-89" source="9Z_DaHX2NAJnU89GjVGX-93" target="9Z_DaHX2NAJnU89GjVGX-95">
          <mxGeometry relative="1" as="geometry" />
        </mxCell>
        <mxCell id="9Z_DaHX2NAJnU89GjVGX-99" style="edgeStyle=none;rounded=0;orthogonalLoop=1;jettySize=auto;html=1;exitX=1;exitY=0.5;exitDx=0;exitDy=0;entryX=0;entryY=0.5;entryDx=0;entryDy=0;fontFamily=Times New Roman;fontSize=2;endArrow=none;endFill=0;strokeColor=#808080;" edge="1" parent="9Z_DaHX2NAJnU89GjVGX-89" source="9Z_DaHX2NAJnU89GjVGX-94" target="9Z_DaHX2NAJnU89GjVGX-95">
          <mxGeometry relative="1" as="geometry" />
        </mxCell>
        <mxCell id="9Z_DaHX2NAJnU89GjVGX-100" value="" style="rounded=0;whiteSpace=wrap;html=1;fontFamily=Times New Roman;fontSize=2;strokeColor=#808080;" vertex="1" parent="9Z_DaHX2NAJnU89GjVGX-89">
          <mxGeometry x="40" y="30.5" width="20" height="20" as="geometry" />
        </mxCell>
        <mxCell id="9Z_DaHX2NAJnU89GjVGX-101" style="edgeStyle=none;rounded=0;orthogonalLoop=1;jettySize=auto;html=1;entryX=0;entryY=0.5;entryDx=0;entryDy=0;fontFamily=Times New Roman;fontSize=2;endArrow=none;endFill=0;exitX=1;exitY=0.5;exitDx=0;exitDy=0;strokeColor=#808080;" edge="1" parent="9Z_DaHX2NAJnU89GjVGX-89" source="9Z_DaHX2NAJnU89GjVGX-90" target="9Z_DaHX2NAJnU89GjVGX-100">
          <mxGeometry relative="1" as="geometry" />
        </mxCell>
        <mxCell id="9Z_DaHX2NAJnU89GjVGX-102" style="edgeStyle=none;rounded=0;orthogonalLoop=1;jettySize=auto;html=1;exitX=1;exitY=0.5;exitDx=0;exitDy=0;entryX=0;entryY=0.5;entryDx=0;entryDy=0;fontFamily=Times New Roman;fontSize=2;endArrow=none;endFill=0;strokeColor=#808080;" edge="1" parent="9Z_DaHX2NAJnU89GjVGX-89" source="9Z_DaHX2NAJnU89GjVGX-92" target="9Z_DaHX2NAJnU89GjVGX-100">
          <mxGeometry relative="1" as="geometry" />
        </mxCell>
        <mxCell id="9Z_DaHX2NAJnU89GjVGX-103" style="edgeStyle=none;rounded=0;orthogonalLoop=1;jettySize=auto;html=1;exitX=1;exitY=0.5;exitDx=0;exitDy=0;entryX=0;entryY=0.5;entryDx=0;entryDy=0;fontFamily=Times New Roman;fontSize=2;endArrow=none;endFill=0;strokeColor=#808080;" edge="1" parent="9Z_DaHX2NAJnU89GjVGX-89" source="9Z_DaHX2NAJnU89GjVGX-93" target="9Z_DaHX2NAJnU89GjVGX-100">
          <mxGeometry relative="1" as="geometry" />
        </mxCell>
        <mxCell id="9Z_DaHX2NAJnU89GjVGX-104" style="edgeStyle=none;rounded=0;orthogonalLoop=1;jettySize=auto;html=1;exitX=1;exitY=0.5;exitDx=0;exitDy=0;entryX=0;entryY=0.5;entryDx=0;entryDy=0;fontFamily=Times New Roman;fontSize=2;endArrow=none;endFill=0;strokeColor=#808080;" edge="1" parent="9Z_DaHX2NAJnU89GjVGX-89" source="9Z_DaHX2NAJnU89GjVGX-94" target="9Z_DaHX2NAJnU89GjVGX-100">
          <mxGeometry relative="1" as="geometry" />
        </mxCell>
        <mxCell id="9Z_DaHX2NAJnU89GjVGX-105" value="" style="rounded=0;whiteSpace=wrap;html=1;fontFamily=Times New Roman;fontSize=2;strokeColor=#808080;" vertex="1" parent="9Z_DaHX2NAJnU89GjVGX-89">
          <mxGeometry x="40" y="60.5" width="20" height="20" as="geometry" />
        </mxCell>
        <mxCell id="9Z_DaHX2NAJnU89GjVGX-106" style="edgeStyle=none;rounded=0;orthogonalLoop=1;jettySize=auto;html=1;entryX=0;entryY=0.5;entryDx=0;entryDy=0;fontFamily=Times New Roman;fontSize=2;endArrow=none;endFill=0;exitX=1;exitY=0.5;exitDx=0;exitDy=0;strokeColor=#808080;" edge="1" parent="9Z_DaHX2NAJnU89GjVGX-89" source="9Z_DaHX2NAJnU89GjVGX-90" target="9Z_DaHX2NAJnU89GjVGX-105">
          <mxGeometry relative="1" as="geometry" />
        </mxCell>
        <mxCell id="9Z_DaHX2NAJnU89GjVGX-107" style="edgeStyle=none;rounded=0;orthogonalLoop=1;jettySize=auto;html=1;exitX=1;exitY=0.5;exitDx=0;exitDy=0;entryX=0;entryY=0.5;entryDx=0;entryDy=0;fontFamily=Times New Roman;fontSize=2;endArrow=none;endFill=0;strokeColor=#808080;" edge="1" parent="9Z_DaHX2NAJnU89GjVGX-89" source="9Z_DaHX2NAJnU89GjVGX-93" target="9Z_DaHX2NAJnU89GjVGX-105">
          <mxGeometry relative="1" as="geometry" />
        </mxCell>
        <mxCell id="9Z_DaHX2NAJnU89GjVGX-108" style="edgeStyle=none;rounded=0;orthogonalLoop=1;jettySize=auto;html=1;exitX=1;exitY=0.5;exitDx=0;exitDy=0;entryX=0;entryY=0.5;entryDx=0;entryDy=0;fontFamily=Times New Roman;fontSize=2;endArrow=none;endFill=0;strokeColor=#808080;" edge="1" parent="9Z_DaHX2NAJnU89GjVGX-89" source="9Z_DaHX2NAJnU89GjVGX-94" target="9Z_DaHX2NAJnU89GjVGX-105">
          <mxGeometry relative="1" as="geometry" />
        </mxCell>
        <mxCell id="9Z_DaHX2NAJnU89GjVGX-109" value="" style="rounded=0;whiteSpace=wrap;html=1;fontFamily=Times New Roman;fontSize=2;strokeColor=#808080;" vertex="1" parent="9Z_DaHX2NAJnU89GjVGX-89">
          <mxGeometry x="40" y="90.5" width="20" height="20" as="geometry" />
        </mxCell>
        <mxCell id="9Z_DaHX2NAJnU89GjVGX-110" style="edgeStyle=none;rounded=0;orthogonalLoop=1;jettySize=auto;html=1;entryX=0;entryY=0.5;entryDx=0;entryDy=0;fontFamily=Times New Roman;fontSize=2;endArrow=none;endFill=0;exitX=1;exitY=0.5;exitDx=0;exitDy=0;strokeColor=#808080;" edge="1" parent="9Z_DaHX2NAJnU89GjVGX-89" source="9Z_DaHX2NAJnU89GjVGX-90" target="9Z_DaHX2NAJnU89GjVGX-109">
          <mxGeometry relative="1" as="geometry" />
        </mxCell>
        <mxCell id="9Z_DaHX2NAJnU89GjVGX-111" style="edgeStyle=none;rounded=0;orthogonalLoop=1;jettySize=auto;html=1;exitX=1;exitY=0.5;exitDx=0;exitDy=0;entryX=0;entryY=0.5;entryDx=0;entryDy=0;fontFamily=Times New Roman;fontSize=2;endArrow=none;endFill=0;strokeColor=#808080;" edge="1" parent="9Z_DaHX2NAJnU89GjVGX-89" source="9Z_DaHX2NAJnU89GjVGX-92" target="9Z_DaHX2NAJnU89GjVGX-109">
          <mxGeometry relative="1" as="geometry" />
        </mxCell>
        <mxCell id="9Z_DaHX2NAJnU89GjVGX-112" style="edgeStyle=none;rounded=0;orthogonalLoop=1;jettySize=auto;html=1;exitX=1;exitY=0.5;exitDx=0;exitDy=0;entryX=0;entryY=0.5;entryDx=0;entryDy=0;fontFamily=Times New Roman;fontSize=2;endArrow=none;endFill=0;strokeColor=#808080;" edge="1" parent="9Z_DaHX2NAJnU89GjVGX-89" source="9Z_DaHX2NAJnU89GjVGX-93" target="9Z_DaHX2NAJnU89GjVGX-109">
          <mxGeometry relative="1" as="geometry" />
        </mxCell>
        <mxCell id="9Z_DaHX2NAJnU89GjVGX-113" style="edgeStyle=none;rounded=0;orthogonalLoop=1;jettySize=auto;html=1;exitX=1;exitY=0.5;exitDx=0;exitDy=0;entryX=0;entryY=0.5;entryDx=0;entryDy=0;fontFamily=Times New Roman;fontSize=2;endArrow=none;endFill=0;strokeColor=#808080;" edge="1" parent="9Z_DaHX2NAJnU89GjVGX-89" source="9Z_DaHX2NAJnU89GjVGX-94" target="9Z_DaHX2NAJnU89GjVGX-109">
          <mxGeometry relative="1" as="geometry" />
        </mxCell>
        <mxCell id="9Z_DaHX2NAJnU89GjVGX-114" style="edgeStyle=none;rounded=0;orthogonalLoop=1;jettySize=auto;html=1;entryX=1;entryY=0.5;entryDx=0;entryDy=0;fontFamily=Times New Roman;fontSize=2;endArrow=none;endFill=0;strokeColor=#808080;" edge="1" parent="9Z_DaHX2NAJnU89GjVGX-89" source="9Z_DaHX2NAJnU89GjVGX-90" target="9Z_DaHX2NAJnU89GjVGX-90">
          <mxGeometry relative="1" as="geometry" />
        </mxCell>
        <mxCell id="9Z_DaHX2NAJnU89GjVGX-143" value="&lt;font style=&quot;font-size: 18px;&quot;&gt;Generator&lt;/font&gt;" style="rounded=1;whiteSpace=wrap;html=1;fontSize=15;fillColor=#d5e8d4;strokeColor=#82b366;strokeWidth=1;fillStyle=auto;fontFamily=Times New Roman;opacity=80;" vertex="1" parent="9Z_DaHX2NAJnU89GjVGX-145">
          <mxGeometry width="110" height="290" as="geometry" />
        </mxCell>
        <mxCell id="9Z_DaHX2NAJnU89GjVGX-146" value="" style="group" vertex="1" connectable="0" parent="1">
          <mxGeometry x="-266" y="1480" width="110" height="290" as="geometry" />
        </mxCell>
        <mxCell id="9Z_DaHX2NAJnU89GjVGX-147" value="" style="rounded=1;whiteSpace=wrap;html=1;strokeColor=#999999;" vertex="1" parent="9Z_DaHX2NAJnU89GjVGX-146">
          <mxGeometry x="13" y="154" width="84" height="130" as="geometry" />
        </mxCell>
        <mxCell id="9Z_DaHX2NAJnU89GjVGX-148" value="" style="group" vertex="1" connectable="0" parent="9Z_DaHX2NAJnU89GjVGX-146">
          <mxGeometry x="25" y="164" width="60" height="110.5" as="geometry" />
        </mxCell>
        <mxCell id="9Z_DaHX2NAJnU89GjVGX-149" value="" style="rounded=0;whiteSpace=wrap;html=1;fontFamily=Times New Roman;fontSize=2;strokeColor=#808080;" vertex="1" parent="9Z_DaHX2NAJnU89GjVGX-148">
          <mxGeometry width="20" height="20.5" as="geometry" />
        </mxCell>
        <mxCell id="9Z_DaHX2NAJnU89GjVGX-150" style="edgeStyle=none;rounded=0;orthogonalLoop=1;jettySize=auto;html=1;exitX=1;exitY=0.5;exitDx=0;exitDy=0;fontFamily=Times New Roman;fontSize=2;endArrow=none;endFill=0;strokeColor=#808080;" edge="1" parent="9Z_DaHX2NAJnU89GjVGX-148" source="9Z_DaHX2NAJnU89GjVGX-151">
          <mxGeometry relative="1" as="geometry">
            <mxPoint x="40" y="70.5" as="targetPoint" />
          </mxGeometry>
        </mxCell>
        <mxCell id="9Z_DaHX2NAJnU89GjVGX-151" value="" style="rounded=0;whiteSpace=wrap;html=1;fontFamily=Times New Roman;fontSize=2;strokeColor=#808080;" vertex="1" parent="9Z_DaHX2NAJnU89GjVGX-148">
          <mxGeometry y="30.5" width="20" height="20" as="geometry" />
        </mxCell>
        <mxCell id="9Z_DaHX2NAJnU89GjVGX-152" value="" style="rounded=0;whiteSpace=wrap;html=1;fontFamily=Times New Roman;fontSize=2;strokeColor=#808080;" vertex="1" parent="9Z_DaHX2NAJnU89GjVGX-148">
          <mxGeometry y="60.5" width="20" height="20" as="geometry" />
        </mxCell>
        <mxCell id="9Z_DaHX2NAJnU89GjVGX-153" value="" style="rounded=0;whiteSpace=wrap;html=1;fontFamily=Times New Roman;fontSize=2;strokeColor=#808080;" vertex="1" parent="9Z_DaHX2NAJnU89GjVGX-148">
          <mxGeometry y="90.5" width="20" height="20" as="geometry" />
        </mxCell>
        <mxCell id="9Z_DaHX2NAJnU89GjVGX-154" value="" style="rounded=0;whiteSpace=wrap;html=1;fontFamily=Times New Roman;fontSize=2;strokeColor=#808080;" vertex="1" parent="9Z_DaHX2NAJnU89GjVGX-148">
          <mxGeometry x="40" width="20" height="20" as="geometry" />
        </mxCell>
        <mxCell id="9Z_DaHX2NAJnU89GjVGX-155" style="edgeStyle=orthogonalEdgeStyle;rounded=0;orthogonalLoop=1;jettySize=auto;html=1;entryX=0;entryY=0.5;entryDx=0;entryDy=0;fontFamily=Times New Roman;fontSize=2;endArrow=none;endFill=0;strokeColor=#808080;" edge="1" parent="9Z_DaHX2NAJnU89GjVGX-148" source="9Z_DaHX2NAJnU89GjVGX-149" target="9Z_DaHX2NAJnU89GjVGX-154">
          <mxGeometry relative="1" as="geometry" />
        </mxCell>
        <mxCell id="9Z_DaHX2NAJnU89GjVGX-156" style="edgeStyle=none;rounded=0;orthogonalLoop=1;jettySize=auto;html=1;exitX=1;exitY=0.5;exitDx=0;exitDy=0;entryX=0;entryY=0.5;entryDx=0;entryDy=0;fontFamily=Times New Roman;fontSize=2;endArrow=none;endFill=0;strokeColor=#808080;" edge="1" parent="9Z_DaHX2NAJnU89GjVGX-148" source="9Z_DaHX2NAJnU89GjVGX-151" target="9Z_DaHX2NAJnU89GjVGX-154">
          <mxGeometry relative="1" as="geometry" />
        </mxCell>
        <mxCell id="9Z_DaHX2NAJnU89GjVGX-157" style="edgeStyle=none;rounded=0;orthogonalLoop=1;jettySize=auto;html=1;exitX=1;exitY=0.5;exitDx=0;exitDy=0;entryX=0;entryY=0.5;entryDx=0;entryDy=0;fontFamily=Times New Roman;fontSize=2;endArrow=none;endFill=0;strokeColor=#808080;" edge="1" parent="9Z_DaHX2NAJnU89GjVGX-148" source="9Z_DaHX2NAJnU89GjVGX-152" target="9Z_DaHX2NAJnU89GjVGX-154">
          <mxGeometry relative="1" as="geometry" />
        </mxCell>
        <mxCell id="9Z_DaHX2NAJnU89GjVGX-158" style="edgeStyle=none;rounded=0;orthogonalLoop=1;jettySize=auto;html=1;exitX=1;exitY=0.5;exitDx=0;exitDy=0;entryX=0;entryY=0.5;entryDx=0;entryDy=0;fontFamily=Times New Roman;fontSize=2;endArrow=none;endFill=0;strokeColor=#808080;" edge="1" parent="9Z_DaHX2NAJnU89GjVGX-148" source="9Z_DaHX2NAJnU89GjVGX-153" target="9Z_DaHX2NAJnU89GjVGX-154">
          <mxGeometry relative="1" as="geometry" />
        </mxCell>
        <mxCell id="9Z_DaHX2NAJnU89GjVGX-159" value="" style="rounded=0;whiteSpace=wrap;html=1;fontFamily=Times New Roman;fontSize=2;strokeColor=#808080;" vertex="1" parent="9Z_DaHX2NAJnU89GjVGX-148">
          <mxGeometry x="40" y="30.5" width="20" height="20" as="geometry" />
        </mxCell>
        <mxCell id="9Z_DaHX2NAJnU89GjVGX-160" style="edgeStyle=none;rounded=0;orthogonalLoop=1;jettySize=auto;html=1;entryX=0;entryY=0.5;entryDx=0;entryDy=0;fontFamily=Times New Roman;fontSize=2;endArrow=none;endFill=0;exitX=1;exitY=0.5;exitDx=0;exitDy=0;strokeColor=#808080;" edge="1" parent="9Z_DaHX2NAJnU89GjVGX-148" source="9Z_DaHX2NAJnU89GjVGX-149" target="9Z_DaHX2NAJnU89GjVGX-159">
          <mxGeometry relative="1" as="geometry" />
        </mxCell>
        <mxCell id="9Z_DaHX2NAJnU89GjVGX-161" style="edgeStyle=none;rounded=0;orthogonalLoop=1;jettySize=auto;html=1;exitX=1;exitY=0.5;exitDx=0;exitDy=0;entryX=0;entryY=0.5;entryDx=0;entryDy=0;fontFamily=Times New Roman;fontSize=2;endArrow=none;endFill=0;strokeColor=#808080;" edge="1" parent="9Z_DaHX2NAJnU89GjVGX-148" source="9Z_DaHX2NAJnU89GjVGX-151" target="9Z_DaHX2NAJnU89GjVGX-159">
          <mxGeometry relative="1" as="geometry" />
        </mxCell>
        <mxCell id="9Z_DaHX2NAJnU89GjVGX-162" style="edgeStyle=none;rounded=0;orthogonalLoop=1;jettySize=auto;html=1;exitX=1;exitY=0.5;exitDx=0;exitDy=0;entryX=0;entryY=0.5;entryDx=0;entryDy=0;fontFamily=Times New Roman;fontSize=2;endArrow=none;endFill=0;strokeColor=#808080;" edge="1" parent="9Z_DaHX2NAJnU89GjVGX-148" source="9Z_DaHX2NAJnU89GjVGX-152" target="9Z_DaHX2NAJnU89GjVGX-159">
          <mxGeometry relative="1" as="geometry" />
        </mxCell>
        <mxCell id="9Z_DaHX2NAJnU89GjVGX-163" style="edgeStyle=none;rounded=0;orthogonalLoop=1;jettySize=auto;html=1;exitX=1;exitY=0.5;exitDx=0;exitDy=0;entryX=0;entryY=0.5;entryDx=0;entryDy=0;fontFamily=Times New Roman;fontSize=2;endArrow=none;endFill=0;strokeColor=#808080;" edge="1" parent="9Z_DaHX2NAJnU89GjVGX-148" source="9Z_DaHX2NAJnU89GjVGX-153" target="9Z_DaHX2NAJnU89GjVGX-159">
          <mxGeometry relative="1" as="geometry" />
        </mxCell>
        <mxCell id="9Z_DaHX2NAJnU89GjVGX-164" value="" style="rounded=0;whiteSpace=wrap;html=1;fontFamily=Times New Roman;fontSize=2;strokeColor=#808080;" vertex="1" parent="9Z_DaHX2NAJnU89GjVGX-148">
          <mxGeometry x="40" y="60.5" width="20" height="20" as="geometry" />
        </mxCell>
        <mxCell id="9Z_DaHX2NAJnU89GjVGX-165" style="edgeStyle=none;rounded=0;orthogonalLoop=1;jettySize=auto;html=1;entryX=0;entryY=0.5;entryDx=0;entryDy=0;fontFamily=Times New Roman;fontSize=2;endArrow=none;endFill=0;exitX=1;exitY=0.5;exitDx=0;exitDy=0;strokeColor=#808080;" edge="1" parent="9Z_DaHX2NAJnU89GjVGX-148" source="9Z_DaHX2NAJnU89GjVGX-149" target="9Z_DaHX2NAJnU89GjVGX-164">
          <mxGeometry relative="1" as="geometry" />
        </mxCell>
        <mxCell id="9Z_DaHX2NAJnU89GjVGX-166" style="edgeStyle=none;rounded=0;orthogonalLoop=1;jettySize=auto;html=1;exitX=1;exitY=0.5;exitDx=0;exitDy=0;entryX=0;entryY=0.5;entryDx=0;entryDy=0;fontFamily=Times New Roman;fontSize=2;endArrow=none;endFill=0;strokeColor=#808080;" edge="1" parent="9Z_DaHX2NAJnU89GjVGX-148" source="9Z_DaHX2NAJnU89GjVGX-152" target="9Z_DaHX2NAJnU89GjVGX-164">
          <mxGeometry relative="1" as="geometry" />
        </mxCell>
        <mxCell id="9Z_DaHX2NAJnU89GjVGX-167" style="edgeStyle=none;rounded=0;orthogonalLoop=1;jettySize=auto;html=1;exitX=1;exitY=0.5;exitDx=0;exitDy=0;entryX=0;entryY=0.5;entryDx=0;entryDy=0;fontFamily=Times New Roman;fontSize=2;endArrow=none;endFill=0;strokeColor=#808080;" edge="1" parent="9Z_DaHX2NAJnU89GjVGX-148" source="9Z_DaHX2NAJnU89GjVGX-153" target="9Z_DaHX2NAJnU89GjVGX-164">
          <mxGeometry relative="1" as="geometry" />
        </mxCell>
        <mxCell id="9Z_DaHX2NAJnU89GjVGX-168" value="" style="rounded=0;whiteSpace=wrap;html=1;fontFamily=Times New Roman;fontSize=2;strokeColor=#808080;" vertex="1" parent="9Z_DaHX2NAJnU89GjVGX-148">
          <mxGeometry x="40" y="90.5" width="20" height="20" as="geometry" />
        </mxCell>
        <mxCell id="9Z_DaHX2NAJnU89GjVGX-169" style="edgeStyle=none;rounded=0;orthogonalLoop=1;jettySize=auto;html=1;entryX=0;entryY=0.5;entryDx=0;entryDy=0;fontFamily=Times New Roman;fontSize=2;endArrow=none;endFill=0;exitX=1;exitY=0.5;exitDx=0;exitDy=0;strokeColor=#808080;" edge="1" parent="9Z_DaHX2NAJnU89GjVGX-148" source="9Z_DaHX2NAJnU89GjVGX-149" target="9Z_DaHX2NAJnU89GjVGX-168">
          <mxGeometry relative="1" as="geometry" />
        </mxCell>
        <mxCell id="9Z_DaHX2NAJnU89GjVGX-170" style="edgeStyle=none;rounded=0;orthogonalLoop=1;jettySize=auto;html=1;exitX=1;exitY=0.5;exitDx=0;exitDy=0;entryX=0;entryY=0.5;entryDx=0;entryDy=0;fontFamily=Times New Roman;fontSize=2;endArrow=none;endFill=0;strokeColor=#808080;" edge="1" parent="9Z_DaHX2NAJnU89GjVGX-148" source="9Z_DaHX2NAJnU89GjVGX-151" target="9Z_DaHX2NAJnU89GjVGX-168">
          <mxGeometry relative="1" as="geometry" />
        </mxCell>
        <mxCell id="9Z_DaHX2NAJnU89GjVGX-171" style="edgeStyle=none;rounded=0;orthogonalLoop=1;jettySize=auto;html=1;exitX=1;exitY=0.5;exitDx=0;exitDy=0;entryX=0;entryY=0.5;entryDx=0;entryDy=0;fontFamily=Times New Roman;fontSize=2;endArrow=none;endFill=0;strokeColor=#808080;" edge="1" parent="9Z_DaHX2NAJnU89GjVGX-148" source="9Z_DaHX2NAJnU89GjVGX-152" target="9Z_DaHX2NAJnU89GjVGX-168">
          <mxGeometry relative="1" as="geometry" />
        </mxCell>
        <mxCell id="9Z_DaHX2NAJnU89GjVGX-172" style="edgeStyle=none;rounded=0;orthogonalLoop=1;jettySize=auto;html=1;exitX=1;exitY=0.5;exitDx=0;exitDy=0;entryX=0;entryY=0.5;entryDx=0;entryDy=0;fontFamily=Times New Roman;fontSize=2;endArrow=none;endFill=0;strokeColor=#808080;" edge="1" parent="9Z_DaHX2NAJnU89GjVGX-148" source="9Z_DaHX2NAJnU89GjVGX-153" target="9Z_DaHX2NAJnU89GjVGX-168">
          <mxGeometry relative="1" as="geometry" />
        </mxCell>
        <mxCell id="9Z_DaHX2NAJnU89GjVGX-173" style="edgeStyle=none;rounded=0;orthogonalLoop=1;jettySize=auto;html=1;entryX=1;entryY=0.5;entryDx=0;entryDy=0;fontFamily=Times New Roman;fontSize=2;endArrow=none;endFill=0;strokeColor=#808080;" edge="1" parent="9Z_DaHX2NAJnU89GjVGX-148" source="9Z_DaHX2NAJnU89GjVGX-149" target="9Z_DaHX2NAJnU89GjVGX-149">
          <mxGeometry relative="1" as="geometry" />
        </mxCell>
        <mxCell id="9Z_DaHX2NAJnU89GjVGX-174" value="" style="endArrow=classic;html=1;rounded=0;strokeColor=#999999;entryX=0.5;entryY=0;entryDx=0;entryDy=0;exitX=0.5;exitY=1;exitDx=0;exitDy=0;" edge="1" parent="9Z_DaHX2NAJnU89GjVGX-146" source="9Z_DaHX2NAJnU89GjVGX-175" target="9Z_DaHX2NAJnU89GjVGX-147">
          <mxGeometry width="50" height="50" relative="1" as="geometry">
            <mxPoint x="55" y="136" as="sourcePoint" />
            <mxPoint x="105" y="91.5" as="targetPoint" />
          </mxGeometry>
        </mxCell>
        <mxCell id="9Z_DaHX2NAJnU89GjVGX-175" value="" style="rounded=1;whiteSpace=wrap;html=1;strokeColor=#999999;" vertex="1" parent="9Z_DaHX2NAJnU89GjVGX-146">
          <mxGeometry x="13" y="6" width="84" height="130" as="geometry" />
        </mxCell>
        <mxCell id="9Z_DaHX2NAJnU89GjVGX-176" value="" style="group" vertex="1" connectable="0" parent="9Z_DaHX2NAJnU89GjVGX-146">
          <mxGeometry x="25" y="16" width="60" height="110.5" as="geometry" />
        </mxCell>
        <mxCell id="9Z_DaHX2NAJnU89GjVGX-177" value="" style="rounded=0;whiteSpace=wrap;html=1;fontFamily=Times New Roman;fontSize=2;strokeColor=#808080;" vertex="1" parent="9Z_DaHX2NAJnU89GjVGX-176">
          <mxGeometry width="20" height="20.5" as="geometry" />
        </mxCell>
        <mxCell id="9Z_DaHX2NAJnU89GjVGX-178" style="edgeStyle=none;rounded=0;orthogonalLoop=1;jettySize=auto;html=1;exitX=1;exitY=0.5;exitDx=0;exitDy=0;fontFamily=Times New Roman;fontSize=2;endArrow=none;endFill=0;strokeColor=#808080;" edge="1" parent="9Z_DaHX2NAJnU89GjVGX-176" source="9Z_DaHX2NAJnU89GjVGX-179">
          <mxGeometry relative="1" as="geometry">
            <mxPoint x="40" y="70.5" as="targetPoint" />
          </mxGeometry>
        </mxCell>
        <mxCell id="9Z_DaHX2NAJnU89GjVGX-179" value="" style="rounded=0;whiteSpace=wrap;html=1;fontFamily=Times New Roman;fontSize=2;strokeColor=#808080;" vertex="1" parent="9Z_DaHX2NAJnU89GjVGX-176">
          <mxGeometry y="30.5" width="20" height="20" as="geometry" />
        </mxCell>
        <mxCell id="9Z_DaHX2NAJnU89GjVGX-180" value="" style="rounded=0;whiteSpace=wrap;html=1;fontFamily=Times New Roman;fontSize=2;strokeColor=#808080;" vertex="1" parent="9Z_DaHX2NAJnU89GjVGX-176">
          <mxGeometry y="60.5" width="20" height="20" as="geometry" />
        </mxCell>
        <mxCell id="9Z_DaHX2NAJnU89GjVGX-181" value="" style="rounded=0;whiteSpace=wrap;html=1;fontFamily=Times New Roman;fontSize=2;strokeColor=#808080;" vertex="1" parent="9Z_DaHX2NAJnU89GjVGX-176">
          <mxGeometry y="90.5" width="20" height="20" as="geometry" />
        </mxCell>
        <mxCell id="9Z_DaHX2NAJnU89GjVGX-182" value="" style="rounded=0;whiteSpace=wrap;html=1;fontFamily=Times New Roman;fontSize=2;strokeColor=#808080;" vertex="1" parent="9Z_DaHX2NAJnU89GjVGX-176">
          <mxGeometry x="40" width="20" height="20" as="geometry" />
        </mxCell>
        <mxCell id="9Z_DaHX2NAJnU89GjVGX-183" style="edgeStyle=orthogonalEdgeStyle;rounded=0;orthogonalLoop=1;jettySize=auto;html=1;entryX=0;entryY=0.5;entryDx=0;entryDy=0;fontFamily=Times New Roman;fontSize=2;endArrow=none;endFill=0;strokeColor=#808080;" edge="1" parent="9Z_DaHX2NAJnU89GjVGX-176" source="9Z_DaHX2NAJnU89GjVGX-177" target="9Z_DaHX2NAJnU89GjVGX-182">
          <mxGeometry relative="1" as="geometry" />
        </mxCell>
        <mxCell id="9Z_DaHX2NAJnU89GjVGX-184" style="edgeStyle=none;rounded=0;orthogonalLoop=1;jettySize=auto;html=1;exitX=1;exitY=0.5;exitDx=0;exitDy=0;entryX=0;entryY=0.5;entryDx=0;entryDy=0;fontFamily=Times New Roman;fontSize=2;endArrow=none;endFill=0;strokeColor=#808080;" edge="1" parent="9Z_DaHX2NAJnU89GjVGX-176" source="9Z_DaHX2NAJnU89GjVGX-179" target="9Z_DaHX2NAJnU89GjVGX-182">
          <mxGeometry relative="1" as="geometry" />
        </mxCell>
        <mxCell id="9Z_DaHX2NAJnU89GjVGX-185" style="edgeStyle=none;rounded=0;orthogonalLoop=1;jettySize=auto;html=1;exitX=1;exitY=0.5;exitDx=0;exitDy=0;entryX=0;entryY=0.5;entryDx=0;entryDy=0;fontFamily=Times New Roman;fontSize=2;endArrow=none;endFill=0;strokeColor=#808080;" edge="1" parent="9Z_DaHX2NAJnU89GjVGX-176" source="9Z_DaHX2NAJnU89GjVGX-180" target="9Z_DaHX2NAJnU89GjVGX-182">
          <mxGeometry relative="1" as="geometry" />
        </mxCell>
        <mxCell id="9Z_DaHX2NAJnU89GjVGX-186" style="edgeStyle=none;rounded=0;orthogonalLoop=1;jettySize=auto;html=1;exitX=1;exitY=0.5;exitDx=0;exitDy=0;entryX=0;entryY=0.5;entryDx=0;entryDy=0;fontFamily=Times New Roman;fontSize=2;endArrow=none;endFill=0;strokeColor=#808080;" edge="1" parent="9Z_DaHX2NAJnU89GjVGX-176" source="9Z_DaHX2NAJnU89GjVGX-181" target="9Z_DaHX2NAJnU89GjVGX-182">
          <mxGeometry relative="1" as="geometry" />
        </mxCell>
        <mxCell id="9Z_DaHX2NAJnU89GjVGX-187" value="" style="rounded=0;whiteSpace=wrap;html=1;fontFamily=Times New Roman;fontSize=2;strokeColor=#808080;" vertex="1" parent="9Z_DaHX2NAJnU89GjVGX-176">
          <mxGeometry x="40" y="30.5" width="20" height="20" as="geometry" />
        </mxCell>
        <mxCell id="9Z_DaHX2NAJnU89GjVGX-188" style="edgeStyle=none;rounded=0;orthogonalLoop=1;jettySize=auto;html=1;entryX=0;entryY=0.5;entryDx=0;entryDy=0;fontFamily=Times New Roman;fontSize=2;endArrow=none;endFill=0;exitX=1;exitY=0.5;exitDx=0;exitDy=0;strokeColor=#808080;" edge="1" parent="9Z_DaHX2NAJnU89GjVGX-176" source="9Z_DaHX2NAJnU89GjVGX-177" target="9Z_DaHX2NAJnU89GjVGX-187">
          <mxGeometry relative="1" as="geometry" />
        </mxCell>
        <mxCell id="9Z_DaHX2NAJnU89GjVGX-189" style="edgeStyle=none;rounded=0;orthogonalLoop=1;jettySize=auto;html=1;exitX=1;exitY=0.5;exitDx=0;exitDy=0;entryX=0;entryY=0.5;entryDx=0;entryDy=0;fontFamily=Times New Roman;fontSize=2;endArrow=none;endFill=0;strokeColor=#808080;" edge="1" parent="9Z_DaHX2NAJnU89GjVGX-176" source="9Z_DaHX2NAJnU89GjVGX-179" target="9Z_DaHX2NAJnU89GjVGX-187">
          <mxGeometry relative="1" as="geometry" />
        </mxCell>
        <mxCell id="9Z_DaHX2NAJnU89GjVGX-190" style="edgeStyle=none;rounded=0;orthogonalLoop=1;jettySize=auto;html=1;exitX=1;exitY=0.5;exitDx=0;exitDy=0;entryX=0;entryY=0.5;entryDx=0;entryDy=0;fontFamily=Times New Roman;fontSize=2;endArrow=none;endFill=0;strokeColor=#808080;" edge="1" parent="9Z_DaHX2NAJnU89GjVGX-176" source="9Z_DaHX2NAJnU89GjVGX-180" target="9Z_DaHX2NAJnU89GjVGX-187">
          <mxGeometry relative="1" as="geometry" />
        </mxCell>
        <mxCell id="9Z_DaHX2NAJnU89GjVGX-191" style="edgeStyle=none;rounded=0;orthogonalLoop=1;jettySize=auto;html=1;exitX=1;exitY=0.5;exitDx=0;exitDy=0;entryX=0;entryY=0.5;entryDx=0;entryDy=0;fontFamily=Times New Roman;fontSize=2;endArrow=none;endFill=0;strokeColor=#808080;" edge="1" parent="9Z_DaHX2NAJnU89GjVGX-176" source="9Z_DaHX2NAJnU89GjVGX-181" target="9Z_DaHX2NAJnU89GjVGX-187">
          <mxGeometry relative="1" as="geometry" />
        </mxCell>
        <mxCell id="9Z_DaHX2NAJnU89GjVGX-192" value="" style="rounded=0;whiteSpace=wrap;html=1;fontFamily=Times New Roman;fontSize=2;strokeColor=#808080;" vertex="1" parent="9Z_DaHX2NAJnU89GjVGX-176">
          <mxGeometry x="40" y="60.5" width="20" height="20" as="geometry" />
        </mxCell>
        <mxCell id="9Z_DaHX2NAJnU89GjVGX-193" style="edgeStyle=none;rounded=0;orthogonalLoop=1;jettySize=auto;html=1;entryX=0;entryY=0.5;entryDx=0;entryDy=0;fontFamily=Times New Roman;fontSize=2;endArrow=none;endFill=0;exitX=1;exitY=0.5;exitDx=0;exitDy=0;strokeColor=#808080;" edge="1" parent="9Z_DaHX2NAJnU89GjVGX-176" source="9Z_DaHX2NAJnU89GjVGX-177" target="9Z_DaHX2NAJnU89GjVGX-192">
          <mxGeometry relative="1" as="geometry" />
        </mxCell>
        <mxCell id="9Z_DaHX2NAJnU89GjVGX-194" style="edgeStyle=none;rounded=0;orthogonalLoop=1;jettySize=auto;html=1;exitX=1;exitY=0.5;exitDx=0;exitDy=0;entryX=0;entryY=0.5;entryDx=0;entryDy=0;fontFamily=Times New Roman;fontSize=2;endArrow=none;endFill=0;strokeColor=#808080;" edge="1" parent="9Z_DaHX2NAJnU89GjVGX-176" source="9Z_DaHX2NAJnU89GjVGX-180" target="9Z_DaHX2NAJnU89GjVGX-192">
          <mxGeometry relative="1" as="geometry" />
        </mxCell>
        <mxCell id="9Z_DaHX2NAJnU89GjVGX-195" style="edgeStyle=none;rounded=0;orthogonalLoop=1;jettySize=auto;html=1;exitX=1;exitY=0.5;exitDx=0;exitDy=0;entryX=0;entryY=0.5;entryDx=0;entryDy=0;fontFamily=Times New Roman;fontSize=2;endArrow=none;endFill=0;strokeColor=#808080;" edge="1" parent="9Z_DaHX2NAJnU89GjVGX-176" source="9Z_DaHX2NAJnU89GjVGX-181" target="9Z_DaHX2NAJnU89GjVGX-192">
          <mxGeometry relative="1" as="geometry" />
        </mxCell>
        <mxCell id="9Z_DaHX2NAJnU89GjVGX-196" value="" style="rounded=0;whiteSpace=wrap;html=1;fontFamily=Times New Roman;fontSize=2;strokeColor=#808080;" vertex="1" parent="9Z_DaHX2NAJnU89GjVGX-176">
          <mxGeometry x="40" y="90.5" width="20" height="20" as="geometry" />
        </mxCell>
        <mxCell id="9Z_DaHX2NAJnU89GjVGX-197" style="edgeStyle=none;rounded=0;orthogonalLoop=1;jettySize=auto;html=1;entryX=0;entryY=0.5;entryDx=0;entryDy=0;fontFamily=Times New Roman;fontSize=2;endArrow=none;endFill=0;exitX=1;exitY=0.5;exitDx=0;exitDy=0;strokeColor=#808080;" edge="1" parent="9Z_DaHX2NAJnU89GjVGX-176" source="9Z_DaHX2NAJnU89GjVGX-177" target="9Z_DaHX2NAJnU89GjVGX-196">
          <mxGeometry relative="1" as="geometry" />
        </mxCell>
        <mxCell id="9Z_DaHX2NAJnU89GjVGX-198" style="edgeStyle=none;rounded=0;orthogonalLoop=1;jettySize=auto;html=1;exitX=1;exitY=0.5;exitDx=0;exitDy=0;entryX=0;entryY=0.5;entryDx=0;entryDy=0;fontFamily=Times New Roman;fontSize=2;endArrow=none;endFill=0;strokeColor=#808080;" edge="1" parent="9Z_DaHX2NAJnU89GjVGX-176" source="9Z_DaHX2NAJnU89GjVGX-179" target="9Z_DaHX2NAJnU89GjVGX-196">
          <mxGeometry relative="1" as="geometry" />
        </mxCell>
        <mxCell id="9Z_DaHX2NAJnU89GjVGX-199" style="edgeStyle=none;rounded=0;orthogonalLoop=1;jettySize=auto;html=1;exitX=1;exitY=0.5;exitDx=0;exitDy=0;entryX=0;entryY=0.5;entryDx=0;entryDy=0;fontFamily=Times New Roman;fontSize=2;endArrow=none;endFill=0;strokeColor=#808080;" edge="1" parent="9Z_DaHX2NAJnU89GjVGX-176" source="9Z_DaHX2NAJnU89GjVGX-180" target="9Z_DaHX2NAJnU89GjVGX-196">
          <mxGeometry relative="1" as="geometry" />
        </mxCell>
        <mxCell id="9Z_DaHX2NAJnU89GjVGX-200" style="edgeStyle=none;rounded=0;orthogonalLoop=1;jettySize=auto;html=1;exitX=1;exitY=0.5;exitDx=0;exitDy=0;entryX=0;entryY=0.5;entryDx=0;entryDy=0;fontFamily=Times New Roman;fontSize=2;endArrow=none;endFill=0;strokeColor=#808080;" edge="1" parent="9Z_DaHX2NAJnU89GjVGX-176" source="9Z_DaHX2NAJnU89GjVGX-181" target="9Z_DaHX2NAJnU89GjVGX-196">
          <mxGeometry relative="1" as="geometry" />
        </mxCell>
        <mxCell id="9Z_DaHX2NAJnU89GjVGX-201" style="edgeStyle=none;rounded=0;orthogonalLoop=1;jettySize=auto;html=1;entryX=1;entryY=0.5;entryDx=0;entryDy=0;fontFamily=Times New Roman;fontSize=2;endArrow=none;endFill=0;strokeColor=#808080;" edge="1" parent="9Z_DaHX2NAJnU89GjVGX-176" source="9Z_DaHX2NAJnU89GjVGX-177" target="9Z_DaHX2NAJnU89GjVGX-177">
          <mxGeometry relative="1" as="geometry" />
        </mxCell>
        <mxCell id="9Z_DaHX2NAJnU89GjVGX-202" value="&lt;font style=&quot;font-size: 18px;&quot;&gt;Reranker&lt;/font&gt;" style="rounded=1;whiteSpace=wrap;html=1;fontSize=15;fillColor=#dae8fc;strokeColor=#6c8ebf;strokeWidth=1;fillStyle=auto;fontFamily=Times New Roman;opacity=80;" vertex="1" parent="9Z_DaHX2NAJnU89GjVGX-146">
          <mxGeometry width="110" height="290" as="geometry" />
        </mxCell>
        <mxCell id="9Z_DaHX2NAJnU89GjVGX-203" style="edgeStyle=none;rounded=0;orthogonalLoop=1;jettySize=auto;html=1;entryX=-0.003;entryY=0.068;entryDx=0;entryDy=0;entryPerimeter=0;strokeColor=#000000;fontFamily=Times New Roman;fontSize=2;endArrow=classicThin;endFill=1;" edge="1" parent="1" source="9Z_DaHX2NAJnU89GjVGX-204">
          <mxGeometry relative="1" as="geometry">
            <mxPoint x="-739.21" y="1505.96" as="targetPoint" />
          </mxGeometry>
        </mxCell>
        <mxCell id="9Z_DaHX2NAJnU89GjVGX-204" value="Er" style="text;html=1;align=right;verticalAlign=middle;resizable=0;points=[];autosize=1;strokeColor=none;fillColor=none;fontSize=16;fontFamily=Times New Roman;" vertex="1" parent="1">
          <mxGeometry x="-803" y="1491" width="40" height="30" as="geometry" />
        </mxCell>
        <mxCell id="9Z_DaHX2NAJnU89GjVGX-205" style="edgeStyle=none;rounded=0;orthogonalLoop=1;jettySize=auto;html=1;entryX=-0.003;entryY=0.219;entryDx=0;entryDy=0;entryPerimeter=0;strokeColor=#000000;fontFamily=Times New Roman;fontSize=2;endArrow=classicThin;endFill=1;" edge="1" parent="1" source="9Z_DaHX2NAJnU89GjVGX-206">
          <mxGeometry relative="1" as="geometry">
            <mxPoint x="-739.21" y="1538.18" as="targetPoint" />
          </mxGeometry>
        </mxCell>
        <mxCell id="9Z_DaHX2NAJnU89GjVGX-206" value="lebt" style="text;html=1;align=right;verticalAlign=middle;resizable=0;points=[];autosize=1;strokeColor=none;fillColor=none;fontSize=16;fontFamily=Times New Roman;" vertex="1" parent="1">
          <mxGeometry x="-813" y="1523" width="50" height="30" as="geometry" />
        </mxCell>
        <mxCell id="9Z_DaHX2NAJnU89GjVGX-207" style="edgeStyle=none;rounded=0;orthogonalLoop=1;jettySize=auto;html=1;entryX=-0.009;entryY=0.354;entryDx=0;entryDy=0;entryPerimeter=0;strokeColor=#000000;fontFamily=Times New Roman;fontSize=2;endArrow=classicThin;endFill=1;" edge="1" parent="1" source="9Z_DaHX2NAJnU89GjVGX-208">
          <mxGeometry relative="1" as="geometry">
            <mxPoint x="-739.6299999999999" y="1567.88" as="targetPoint" />
          </mxGeometry>
        </mxCell>
        <mxCell id="9Z_DaHX2NAJnU89GjVGX-208" value="in" style="text;html=1;align=right;verticalAlign=middle;resizable=0;points=[];autosize=1;strokeColor=none;fillColor=none;fontSize=16;fontFamily=Times New Roman;" vertex="1" parent="1">
          <mxGeometry x="-803" y="1553" width="40" height="30" as="geometry" />
        </mxCell>
        <mxCell id="9Z_DaHX2NAJnU89GjVGX-209" style="edgeStyle=none;rounded=0;orthogonalLoop=1;jettySize=auto;html=1;entryX=0;entryY=0.5;entryDx=0;entryDy=0;strokeColor=#000000;fontFamily=Times New Roman;fontSize=2;endArrow=classicThin;endFill=1;" edge="1" parent="1" source="9Z_DaHX2NAJnU89GjVGX-210">
          <mxGeometry relative="1" as="geometry">
            <mxPoint x="-739" y="1654" as="targetPoint" />
          </mxGeometry>
        </mxCell>
        <mxCell id="9Z_DaHX2NAJnU89GjVGX-210" value="He" style="text;html=1;align=right;verticalAlign=middle;resizable=0;points=[];autosize=1;strokeColor=none;fillColor=none;fontSize=16;fontFamily=Times New Roman;" vertex="1" parent="1">
          <mxGeometry x="-803" y="1639" width="40" height="30" as="geometry" />
        </mxCell>
        <mxCell id="9Z_DaHX2NAJnU89GjVGX-211" style="edgeStyle=none;rounded=0;orthogonalLoop=1;jettySize=auto;html=1;entryX=-0.011;entryY=0.65;entryDx=0;entryDy=0;entryPerimeter=0;strokeColor=#000000;fontFamily=Times New Roman;fontSize=2;endArrow=classicThin;endFill=1;" edge="1" parent="1" source="9Z_DaHX2NAJnU89GjVGX-212">
          <mxGeometry relative="1" as="geometry">
            <mxPoint x="-739.77" y="1684" as="targetPoint" />
          </mxGeometry>
        </mxCell>
        <mxCell id="9Z_DaHX2NAJnU89GjVGX-212" value="&lt;font color=&quot;#ff0000&quot; style=&quot;font-size: 16px;&quot;&gt;&lt;b style=&quot;font-size: 16px;&quot;&gt;[MASK]&lt;/b&gt;&lt;/font&gt;" style="text;html=1;align=right;verticalAlign=middle;resizable=0;points=[];autosize=1;strokeColor=none;fillColor=none;fontSize=16;fontFamily=Times New Roman;spacingLeft=-25;" vertex="1" parent="1">
          <mxGeometry x="-823" y="1669" width="60" height="30" as="geometry" />
        </mxCell>
        <mxCell id="9Z_DaHX2NAJnU89GjVGX-213" style="edgeStyle=none;rounded=0;orthogonalLoop=1;jettySize=auto;html=1;entryX=-0.009;entryY=0.786;entryDx=0;entryDy=0;entryPerimeter=0;strokeColor=#000000;fontFamily=Times New Roman;fontSize=2;endArrow=classicThin;endFill=1;" edge="1" parent="1" source="9Z_DaHX2NAJnU89GjVGX-214">
          <mxGeometry relative="1" as="geometry">
            <mxPoint x="-739.6299999999999" y="1714.92" as="targetPoint" />
          </mxGeometry>
        </mxCell>
        <mxCell id="9Z_DaHX2NAJnU89GjVGX-214" value="village" style="text;html=1;align=right;verticalAlign=middle;resizable=0;points=[];autosize=1;strokeColor=none;fillColor=none;fontSize=16;fontFamily=Times New Roman;spacingLeft=-10;" vertex="1" parent="1">
          <mxGeometry x="-823" y="1700" width="60" height="30" as="geometry" />
        </mxCell>
        <mxCell id="9Z_DaHX2NAJnU89GjVGX-215" style="edgeStyle=none;rounded=0;orthogonalLoop=1;jettySize=auto;html=1;entryX=-0.008;entryY=0.932;entryDx=0;entryDy=0;entryPerimeter=0;strokeColor=#000000;fontFamily=Times New Roman;fontSize=2;endArrow=classicThin;endFill=1;" edge="1" parent="1" source="9Z_DaHX2NAJnU89GjVGX-216">
          <mxGeometry relative="1" as="geometry">
            <mxPoint x="-739.56" y="1744.04" as="targetPoint" />
          </mxGeometry>
        </mxCell>
        <mxCell id="9Z_DaHX2NAJnU89GjVGX-216" value="." style="text;html=1;align=right;verticalAlign=middle;resizable=0;points=[];autosize=1;strokeColor=none;fillColor=none;fontSize=16;fontFamily=Times New Roman;" vertex="1" parent="1">
          <mxGeometry x="-793" y="1729" width="30" height="30" as="geometry" />
        </mxCell>
        <mxCell id="9Z_DaHX2NAJnU89GjVGX-217" style="edgeStyle=none;rounded=0;orthogonalLoop=1;jettySize=auto;html=1;entryX=-0.009;entryY=0.354;entryDx=0;entryDy=0;entryPerimeter=0;strokeColor=#000000;fontFamily=Times New Roman;fontSize=2;endArrow=classicThin;endFill=1;" edge="1" parent="1" source="9Z_DaHX2NAJnU89GjVGX-218">
          <mxGeometry relative="1" as="geometry">
            <mxPoint x="-738.9999999999999" y="1595.88" as="targetPoint" />
          </mxGeometry>
        </mxCell>
        <mxCell id="9Z_DaHX2NAJnU89GjVGX-218" value="..." style="text;html=1;align=right;verticalAlign=middle;resizable=0;points=[];autosize=1;strokeColor=none;fillColor=none;fontSize=16;fontFamily=Times New Roman;" vertex="1" parent="1">
          <mxGeometry x="-802.37" y="1581" width="40" height="30" as="geometry" />
        </mxCell>
        <mxCell id="9Z_DaHX2NAJnU89GjVGX-219" value="" style="endArrow=classic;html=1;rounded=0;strokeColor=#000000;strokeWidth=1;fontSize=16;" edge="1" parent="1">
          <mxGeometry width="50" height="50" relative="1" as="geometry">
            <mxPoint x="-629" y="1683.85" as="sourcePoint" />
            <mxPoint x="-607" y="1684" as="targetPoint" />
          </mxGeometry>
        </mxCell>
        <mxCell id="9Z_DaHX2NAJnU89GjVGX-248" style="edgeStyle=orthogonalEdgeStyle;rounded=0;orthogonalLoop=1;jettySize=auto;html=1;entryX=0.001;entryY=0.647;entryDx=0;entryDy=0;entryPerimeter=0;strokeColor=#000000;strokeWidth=1;fontFamily=Times New Roman;fontSize=12;endArrow=block;endFill=1;" edge="1" parent="1" source="9Z_DaHX2NAJnU89GjVGX-224" target="9Z_DaHX2NAJnU89GjVGX-227">
          <mxGeometry relative="1" as="geometry" />
        </mxCell>
        <mxCell id="9Z_DaHX2NAJnU89GjVGX-224" value="&lt;font style=&quot;font-size: 16px;&quot;&gt;&lt;b&gt;h&lt;/b&gt;&lt;sub&gt;[mask]&lt;/sub&gt;&lt;/font&gt;" style="rounded=0;whiteSpace=wrap;html=1;fontFamily=Times New Roman;fontSize=2;strokeColor=#82b366;fillColor=#d5e8d4;" vertex="1" parent="1">
          <mxGeometry x="-608" y="1670.94" width="51" height="27.06" as="geometry" />
        </mxCell>
        <mxCell id="9Z_DaHX2NAJnU89GjVGX-234" value="" style="group" vertex="1" connectable="0" parent="1">
          <mxGeometry x="-477" y="1610.47" width="130" height="168.52999999999997" as="geometry" />
        </mxCell>
        <mxCell id="9Z_DaHX2NAJnU89GjVGX-227" value="" style="html=1;verticalLabelPosition=bottom;align=center;labelBackgroundColor=#ffffff;verticalAlign=top;strokeWidth=1;shadow=0;dashed=0;shape=mxgraph.ios7.icons.document;labelBorderColor=none;fontFamily=Times New Roman;fontSize=12;opacity=80;fillColor=#eeeeee;strokeColor=#36393d;" vertex="1" parent="9Z_DaHX2NAJnU89GjVGX-234">
          <mxGeometry width="85.46" height="114" as="geometry" />
        </mxCell>
        <mxCell id="9Z_DaHX2NAJnU89GjVGX-229" value="&lt;font color=&quot;#000000&quot;&gt;po&lt;/font&gt;&lt;font color=&quot;#b3b3b3&quot;&gt;ol&lt;/font&gt;&lt;font color=&quot;#000000&quot;&gt;&amp;nbsp; &amp;nbsp; &amp;nbsp; &amp;nbsp; 0.62&lt;br&gt;po&lt;/font&gt;&lt;font color=&quot;#b3b3b3&quot;&gt;or&lt;/font&gt;&lt;font color=&quot;#000000&quot;&gt;&amp;nbsp; &amp;nbsp; &amp;nbsp; &amp;nbsp; 0.21&lt;/font&gt;&lt;br&gt;&lt;font color=&quot;#b3b3b3&quot;&gt;penury&lt;/font&gt;&lt;font color=&quot;#000000&quot;&gt;&amp;nbsp; &amp;nbsp; 0.00&lt;br&gt;...&amp;nbsp; &amp;nbsp; &amp;nbsp; &amp;nbsp; &amp;nbsp; &amp;nbsp; &amp;nbsp;...&lt;br&gt;&lt;/font&gt;" style="rounded=0;whiteSpace=wrap;html=1;labelBorderColor=none;strokeColor=none;strokeWidth=1;fontFamily=Times New Roman;fontSize=12;fontColor=#FF0000;fillColor=none;opacity=80;align=left;" vertex="1" parent="9Z_DaHX2NAJnU89GjVGX-234">
          <mxGeometry x="2.999999999999943" y="39.5" width="80" height="58" as="geometry" />
        </mxCell>
        <mxCell id="9Z_DaHX2NAJnU89GjVGX-230" value="Vocab.&amp;nbsp; &amp;nbsp; Prob." style="text;html=1;align=left;verticalAlign=middle;resizable=0;points=[];autosize=1;strokeColor=none;fillColor=none;fontSize=12;fontFamily=Times New Roman;fontColor=#000000;" vertex="1" parent="9Z_DaHX2NAJnU89GjVGX-234">
          <mxGeometry x="1.9999999999999432" y="14.5" width="90" height="30" as="geometry" />
        </mxCell>
        <mxCell id="9Z_DaHX2NAJnU89GjVGX-225" value="&lt;span style=&quot;background-color: initial;&quot;&gt;“po”&lt;br&gt;&lt;/span&gt;hunam typed characters:" style="text;html=1;align=left;verticalAlign=middle;resizable=0;points=[];autosize=1;strokeColor=none;fillColor=none;fontSize=16;fontFamily=Times New Roman;" vertex="1" parent="9Z_DaHX2NAJnU89GjVGX-234">
          <mxGeometry x="-50" y="118.52999999999997" width="180" height="50" as="geometry" />
        </mxCell>
        <mxCell id="9Z_DaHX2NAJnU89GjVGX-268" value="" style="endArrow=classic;html=1;rounded=0;strokeColor=#000000;fontFamily=Times New Roman;fontSize=12;fontColor=#000000;exitX=0.982;exitY=0.16;exitDx=0;exitDy=0;exitPerimeter=0;" edge="1" parent="9Z_DaHX2NAJnU89GjVGX-234">
          <mxGeometry width="50" height="50" relative="1" as="geometry">
            <mxPoint x="85.45999999999992" y="73.43999999999983" as="sourcePoint" />
            <mxPoint x="157" y="73.52999999999997" as="targetPoint" />
          </mxGeometry>
        </mxCell>
        <mxCell id="9Z_DaHX2NAJnU89GjVGX-269" value="Negative&lt;br style=&quot;font-size: 13px;&quot;&gt;Sampling" style="edgeLabel;html=1;align=center;verticalAlign=middle;resizable=0;points=[];fontSize=13;fontFamily=Times New Roman;fontColor=#000000;" vertex="1" connectable="0" parent="9Z_DaHX2NAJnU89GjVGX-268">
          <mxGeometry x="-0.2915" relative="1" as="geometry">
            <mxPoint x="6" y="-22" as="offset" />
          </mxGeometry>
        </mxCell>
        <mxCell id="9Z_DaHX2NAJnU89GjVGX-250" style="edgeStyle=orthogonalEdgeStyle;rounded=0;orthogonalLoop=1;jettySize=auto;html=1;strokeColor=#000000;strokeWidth=1;fontFamily=Times New Roman;fontSize=12;endArrow=block;endFill=1;" edge="1" parent="1" source="9Z_DaHX2NAJnU89GjVGX-235">
          <mxGeometry relative="1" as="geometry">
            <mxPoint x="-536" y="1680" as="targetPoint" />
          </mxGeometry>
        </mxCell>
        <mxCell id="9Z_DaHX2NAJnU89GjVGX-235" value="" style="shape=table;startSize=0;container=1;collapsible=0;childLayout=tableLayout;rounded=0;fillStyle=auto;strokeColor=#82b366;strokeWidth=1;fontSize=16;fillColor=#d5e8d4;fontFamily=Times New Roman;" vertex="1" parent="1">
          <mxGeometry x="-574" y="1536" width="75.88" height="89" as="geometry" />
        </mxCell>
        <mxCell id="9Z_DaHX2NAJnU89GjVGX-236" value="" style="shape=tableRow;horizontal=0;startSize=0;swimlaneHead=0;swimlaneBody=0;top=0;left=0;bottom=0;right=0;collapsible=0;dropTarget=0;fillColor=none;points=[[0,0.5],[1,0.5]];portConstraint=eastwest;rounded=0;fillStyle=auto;strokeColor=#000000;strokeWidth=1;fontSize=11;fontFamily=Times New Roman;" vertex="1" parent="9Z_DaHX2NAJnU89GjVGX-235">
          <mxGeometry width="75.88" height="24" as="geometry" />
        </mxCell>
        <mxCell id="9Z_DaHX2NAJnU89GjVGX-237" value="&lt;font color=&quot;#ea6b66&quot; style=&quot;font-size: 16px;&quot;&gt;expert&lt;/font&gt;" style="shape=partialRectangle;html=1;whiteSpace=wrap;connectable=0;overflow=hidden;fillColor=none;top=0;left=0;bottom=0;right=0;pointerEvents=1;rounded=0;fillStyle=auto;strokeColor=#000000;strokeWidth=1;fontSize=16;fontFamily=Times New Roman;" vertex="1" parent="9Z_DaHX2NAJnU89GjVGX-236">
          <mxGeometry width="76" height="24" as="geometry">
            <mxRectangle width="76" height="24" as="alternateBounds" />
          </mxGeometry>
        </mxCell>
        <mxCell id="9Z_DaHX2NAJnU89GjVGX-238" style="shape=tableRow;horizontal=0;startSize=0;swimlaneHead=0;swimlaneBody=0;top=0;left=0;bottom=0;right=0;collapsible=0;dropTarget=0;fillColor=none;points=[[0,0.5],[1,0.5]];portConstraint=eastwest;rounded=0;fillStyle=auto;strokeColor=#000000;strokeWidth=1;fontSize=11;fontFamily=Times New Roman;" vertex="1" parent="9Z_DaHX2NAJnU89GjVGX-235">
          <mxGeometry y="24" width="75.88" height="23" as="geometry" />
        </mxCell>
        <mxCell id="9Z_DaHX2NAJnU89GjVGX-239" value="expect" style="shape=partialRectangle;html=1;whiteSpace=wrap;connectable=0;overflow=hidden;fillColor=none;top=0;left=0;bottom=0;right=0;pointerEvents=1;rounded=0;fillStyle=auto;strokeColor=#000000;strokeWidth=1;fontSize=16;fontFamily=Times New Roman;" vertex="1" parent="9Z_DaHX2NAJnU89GjVGX-238">
          <mxGeometry width="76" height="23" as="geometry">
            <mxRectangle width="76" height="23" as="alternateBounds" />
          </mxGeometry>
        </mxCell>
        <mxCell id="9Z_DaHX2NAJnU89GjVGX-240" value="" style="shape=tableRow;horizontal=0;startSize=0;swimlaneHead=0;swimlaneBody=0;top=0;left=0;bottom=0;right=0;collapsible=0;dropTarget=0;fillColor=none;points=[[0,0.5],[1,0.5]];portConstraint=eastwest;rounded=0;fillStyle=auto;strokeColor=#000000;strokeWidth=1;fontSize=11;fontFamily=Times New Roman;" vertex="1" parent="9Z_DaHX2NAJnU89GjVGX-235">
          <mxGeometry y="47" width="75.88" height="21" as="geometry" />
        </mxCell>
        <mxCell id="9Z_DaHX2NAJnU89GjVGX-241" value="specialist" style="shape=partialRectangle;html=1;whiteSpace=wrap;connectable=0;overflow=hidden;fillColor=none;top=0;left=0;bottom=0;right=0;pointerEvents=1;rounded=0;fillStyle=auto;strokeColor=#000000;strokeWidth=1;fontSize=16;fontFamily=Times New Roman;" vertex="1" parent="9Z_DaHX2NAJnU89GjVGX-240">
          <mxGeometry width="76" height="21" as="geometry">
            <mxRectangle width="76" height="21" as="alternateBounds" />
          </mxGeometry>
        </mxCell>
        <mxCell id="9Z_DaHX2NAJnU89GjVGX-242" value="" style="shape=tableRow;horizontal=0;startSize=0;swimlaneHead=0;swimlaneBody=0;top=0;left=0;bottom=0;right=0;collapsible=0;dropTarget=0;fillColor=none;points=[[0,0.5],[1,0.5]];portConstraint=eastwest;rounded=0;fillStyle=auto;strokeColor=#000000;strokeWidth=1;fontSize=11;fontFamily=Times New Roman;" vertex="1" parent="9Z_DaHX2NAJnU89GjVGX-235">
          <mxGeometry y="68" width="75.88" height="21" as="geometry" />
        </mxCell>
        <mxCell id="9Z_DaHX2NAJnU89GjVGX-243" value="..." style="shape=partialRectangle;html=1;whiteSpace=wrap;connectable=0;overflow=hidden;fillColor=none;top=0;left=0;bottom=0;right=0;pointerEvents=1;rounded=0;fillStyle=auto;strokeColor=#000000;strokeWidth=1;fontSize=11;fontFamily=Times New Roman;" vertex="1" parent="9Z_DaHX2NAJnU89GjVGX-242">
          <mxGeometry width="76" height="21" as="geometry">
            <mxRectangle width="76" height="21" as="alternateBounds" />
          </mxGeometry>
        </mxCell>
        <mxCell id="9Z_DaHX2NAJnU89GjVGX-251" value="" style="endArrow=classic;html=1;rounded=0;strokeColor=#000000;strokeWidth=1;fontFamily=Times New Roman;fontSize=12;" edge="1" parent="1">
          <mxGeometry width="50" height="50" relative="1" as="geometry">
            <mxPoint x="-507.62" y="1724" as="sourcePoint" />
            <mxPoint x="-507.62" y="1684" as="targetPoint" />
          </mxGeometry>
        </mxCell>
        <mxCell id="9Z_DaHX2NAJnU89GjVGX-252" style="edgeStyle=none;rounded=0;orthogonalLoop=1;jettySize=auto;html=1;entryX=-0.003;entryY=0.068;entryDx=0;entryDy=0;entryPerimeter=0;strokeColor=#000000;fontFamily=Times New Roman;fontSize=2;endArrow=classicThin;endFill=1;" edge="1" parent="1" source="9Z_DaHX2NAJnU89GjVGX-253">
          <mxGeometry relative="1" as="geometry">
            <mxPoint x="-265.21000000000004" y="1505.96" as="targetPoint" />
          </mxGeometry>
        </mxCell>
        <mxCell id="9Z_DaHX2NAJnU89GjVGX-253" value="Er" style="text;html=1;align=right;verticalAlign=middle;resizable=0;points=[];autosize=1;strokeColor=none;fillColor=none;fontSize=16;fontFamily=Times New Roman;" vertex="1" parent="1">
          <mxGeometry x="-329" y="1491" width="40" height="30" as="geometry" />
        </mxCell>
        <mxCell id="9Z_DaHX2NAJnU89GjVGX-254" style="edgeStyle=none;rounded=0;orthogonalLoop=1;jettySize=auto;html=1;entryX=-0.003;entryY=0.219;entryDx=0;entryDy=0;entryPerimeter=0;strokeColor=#000000;fontFamily=Times New Roman;fontSize=2;endArrow=classicThin;endFill=1;" edge="1" parent="1" source="9Z_DaHX2NAJnU89GjVGX-255">
          <mxGeometry relative="1" as="geometry">
            <mxPoint x="-265.21000000000004" y="1538.18" as="targetPoint" />
          </mxGeometry>
        </mxCell>
        <mxCell id="9Z_DaHX2NAJnU89GjVGX-255" value="lebt" style="text;html=1;align=right;verticalAlign=middle;resizable=0;points=[];autosize=1;strokeColor=none;fillColor=none;fontSize=16;fontFamily=Times New Roman;" vertex="1" parent="1">
          <mxGeometry x="-339" y="1523" width="50" height="30" as="geometry" />
        </mxCell>
        <mxCell id="9Z_DaHX2NAJnU89GjVGX-256" style="edgeStyle=none;rounded=0;orthogonalLoop=1;jettySize=auto;html=1;entryX=-0.009;entryY=0.354;entryDx=0;entryDy=0;entryPerimeter=0;strokeColor=#000000;fontFamily=Times New Roman;fontSize=2;endArrow=classicThin;endFill=1;" edge="1" parent="1" source="9Z_DaHX2NAJnU89GjVGX-257">
          <mxGeometry relative="1" as="geometry">
            <mxPoint x="-265.6299999999999" y="1567.88" as="targetPoint" />
          </mxGeometry>
        </mxCell>
        <mxCell id="9Z_DaHX2NAJnU89GjVGX-257" value="in" style="text;html=1;align=right;verticalAlign=middle;resizable=0;points=[];autosize=1;strokeColor=none;fillColor=none;fontSize=16;fontFamily=Times New Roman;" vertex="1" parent="1">
          <mxGeometry x="-329" y="1553" width="40" height="30" as="geometry" />
        </mxCell>
        <mxCell id="9Z_DaHX2NAJnU89GjVGX-258" style="edgeStyle=none;rounded=0;orthogonalLoop=1;jettySize=auto;html=1;entryX=0;entryY=0.5;entryDx=0;entryDy=0;strokeColor=#000000;fontFamily=Times New Roman;fontSize=2;endArrow=classicThin;endFill=1;" edge="1" parent="1" source="9Z_DaHX2NAJnU89GjVGX-259">
          <mxGeometry relative="1" as="geometry">
            <mxPoint x="-265" y="1654" as="targetPoint" />
          </mxGeometry>
        </mxCell>
        <mxCell id="9Z_DaHX2NAJnU89GjVGX-259" value="He" style="text;html=1;align=right;verticalAlign=middle;resizable=0;points=[];autosize=1;strokeColor=none;fillColor=none;fontSize=16;fontFamily=Times New Roman;" vertex="1" parent="1">
          <mxGeometry x="-329" y="1639" width="40" height="30" as="geometry" />
        </mxCell>
        <mxCell id="9Z_DaHX2NAJnU89GjVGX-260" style="edgeStyle=none;rounded=0;orthogonalLoop=1;jettySize=auto;html=1;entryX=-0.011;entryY=0.65;entryDx=0;entryDy=0;entryPerimeter=0;strokeColor=#000000;fontFamily=Times New Roman;fontSize=2;endArrow=classicThin;endFill=1;" edge="1" parent="1" source="9Z_DaHX2NAJnU89GjVGX-261">
          <mxGeometry relative="1" as="geometry">
            <mxPoint x="-265.77" y="1684" as="targetPoint" />
          </mxGeometry>
        </mxCell>
        <mxCell id="9Z_DaHX2NAJnU89GjVGX-261" value="&lt;font color=&quot;#ff0000&quot; style=&quot;font-size: 16px;&quot;&gt;&lt;b style=&quot;font-size: 16px;&quot;&gt;pool&lt;/b&gt;&lt;/font&gt;" style="text;html=1;align=right;verticalAlign=middle;resizable=0;points=[];autosize=1;strokeColor=none;fillColor=none;fontSize=16;fontFamily=Times New Roman;spacingLeft=-25;" vertex="1" parent="1">
          <mxGeometry x="-319" y="1669" width="30" height="30" as="geometry" />
        </mxCell>
        <mxCell id="9Z_DaHX2NAJnU89GjVGX-262" style="edgeStyle=none;rounded=0;orthogonalLoop=1;jettySize=auto;html=1;entryX=-0.009;entryY=0.786;entryDx=0;entryDy=0;entryPerimeter=0;strokeColor=#000000;fontFamily=Times New Roman;fontSize=2;endArrow=classicThin;endFill=1;" edge="1" parent="1" source="9Z_DaHX2NAJnU89GjVGX-263">
          <mxGeometry relative="1" as="geometry">
            <mxPoint x="-265.6299999999999" y="1714.92" as="targetPoint" />
          </mxGeometry>
        </mxCell>
        <mxCell id="9Z_DaHX2NAJnU89GjVGX-263" value="village" style="text;html=1;align=right;verticalAlign=middle;resizable=0;points=[];autosize=1;strokeColor=none;fillColor=none;fontSize=16;fontFamily=Times New Roman;spacingLeft=-10;" vertex="1" parent="1">
          <mxGeometry x="-349" y="1700" width="60" height="30" as="geometry" />
        </mxCell>
        <mxCell id="9Z_DaHX2NAJnU89GjVGX-264" style="edgeStyle=none;rounded=0;orthogonalLoop=1;jettySize=auto;html=1;entryX=-0.008;entryY=0.932;entryDx=0;entryDy=0;entryPerimeter=0;strokeColor=#000000;fontFamily=Times New Roman;fontSize=2;endArrow=classicThin;endFill=1;" edge="1" parent="1" source="9Z_DaHX2NAJnU89GjVGX-265">
          <mxGeometry relative="1" as="geometry">
            <mxPoint x="-265.55999999999995" y="1744.04" as="targetPoint" />
          </mxGeometry>
        </mxCell>
        <mxCell id="9Z_DaHX2NAJnU89GjVGX-265" value="." style="text;html=1;align=right;verticalAlign=middle;resizable=0;points=[];autosize=1;strokeColor=none;fillColor=none;fontSize=16;fontFamily=Times New Roman;" vertex="1" parent="1">
          <mxGeometry x="-319" y="1729" width="30" height="30" as="geometry" />
        </mxCell>
        <mxCell id="9Z_DaHX2NAJnU89GjVGX-266" style="edgeStyle=none;rounded=0;orthogonalLoop=1;jettySize=auto;html=1;entryX=-0.009;entryY=0.354;entryDx=0;entryDy=0;entryPerimeter=0;strokeColor=#000000;fontFamily=Times New Roman;fontSize=2;endArrow=classicThin;endFill=1;" edge="1" parent="1" source="9Z_DaHX2NAJnU89GjVGX-267">
          <mxGeometry relative="1" as="geometry">
            <mxPoint x="-265" y="1595.88" as="targetPoint" />
          </mxGeometry>
        </mxCell>
        <mxCell id="9Z_DaHX2NAJnU89GjVGX-267" value="..." style="text;html=1;align=right;verticalAlign=middle;resizable=0;points=[];autosize=1;strokeColor=none;fillColor=none;fontSize=16;fontFamily=Times New Roman;" vertex="1" parent="1">
          <mxGeometry x="-328.37" y="1581" width="40" height="30" as="geometry" />
        </mxCell>
        <mxCell id="9Z_DaHX2NAJnU89GjVGX-271" value="Match?" style="endArrow=classic;html=1;rounded=0;strokeColor=#000000;strokeWidth=1;fontFamily=Times New Roman;fontSize=13;" edge="1" parent="1">
          <mxGeometry relative="1" as="geometry">
            <mxPoint x="-156" y="1684.24" as="sourcePoint" />
            <mxPoint x="-86" y="1684" as="targetPoint" />
          </mxGeometry>
        </mxCell>
        <mxCell id="9Z_DaHX2NAJnU89GjVGX-272" value="Match?" style="edgeLabel;resizable=0;html=1;align=center;verticalAlign=middle;strokeColor=#000000;fontFamily=Times New Roman;fontSize=13;" connectable="0" vertex="1" parent="9Z_DaHX2NAJnU89GjVGX-271">
          <mxGeometry relative="1" as="geometry" />
        </mxCell>
        <mxCell id="9Z_DaHX2NAJnU89GjVGX-273" value="&lt;font style=&quot;font-size: 16px;&quot;&gt;☹️&lt;/font&gt;" style="text;html=1;align=center;verticalAlign=middle;resizable=0;points=[];autosize=1;strokeColor=none;fillColor=none;fontSize=13;fontFamily=Times New Roman;" vertex="1" parent="1">
          <mxGeometry x="-94" y="1670" width="40" height="30" as="geometry" />
        </mxCell>
      </root>
    </mxGraphModel>
  </diagram>
</mxfile>
